<?xml version="1.0" standalone="no"?>
<!DOCTYPE svg PUBLIC "-//W3C//DTD SVG 20010904//EN"
 "http://www.w3.org/TR/2001/REC-SVG-20010904/DTD/svg10.dtd">
<svg version="1.0" xmlns="http://www.w3.org/2000/svg"
 width="728.000000pt" height="688.000000pt" viewBox="0 0 728.000000 688.000000"
 preserveAspectRatio="xMidYMid meet">
<g transform="translate(0.000000,688.000000) scale(0.100000,-0.100000)"
fill="#000000" stroke="none">
<path d="M3940 6410 c-92 -13 -182 -40 -233 -71 -26 -16 -50 -29 -53 -29 -27
0 -174 -163 -209 -231 -27 -51 -42 -61 -83 -53 -42 9 -176 -31 -245 -73 -38
-23 -125 -100 -227 -201 -185 -185 -245 -233 -343 -281 -57 -27 -83 -34 -162
-38 l-93 -6 -66 -59 c-70 -63 -122 -134 -154 -208 -11 -25 -33 -75 -51 -112
-17 -37 -31 -70 -31 -73 0 -3 -13 -33 -29 -67 -15 -35 -45 -108 -66 -163 -20
-55 -45 -118 -55 -140 -9 -22 -23 -58 -30 -80 -7 -22 -16 -44 -20 -50 -4 -5
-19 -41 -33 -80 -62 -166 -78 -208 -97 -245 -11 -21 -20 -44 -20 -50 0 -7 -13
-39 -28 -73 -16 -34 -37 -87 -46 -117 -10 -30 -27 -75 -38 -100 -22 -49 -47
-118 -79 -220 -11 -36 -27 -85 -35 -110 -31 -96 -93 -411 -103 -527 -14 -155
-14 -313 0 -444 15 -140 14 -147 -8 -178 -11 -14 -35 -53 -52 -86 -18 -33 -36
-67 -41 -75 -17 -29 -58 -146 -79 -225 -12 -44 -36 -116 -52 -159 -17 -43 -31
-91 -31 -106 -1 -15 20 -69 46 -121 25 -53 46 -98 46 -102 0 -14 169 -271 245
-372 24 -33 48 -67 52 -75 4 -8 35 -49 70 -92 34 -43 69 -90 77 -105 19 -38
75 -67 166 -87 41 -10 100 -26 132 -37 33 -11 93 -26 136 -34 42 -8 97 -21
122 -29 25 -8 90 -21 145 -30 55 -8 138 -21 185 -28 56 -8 180 -13 360 -12
256 0 284 2 409 27 119 23 224 56 286 90 84 45 142 81 156 95 9 9 26 49 37 87
11 39 32 111 47 160 14 50 35 121 46 159 11 38 26 80 33 95 7 14 21 52 30 84
17 57 78 208 96 237 6 8 23 40 40 70 16 30 38 66 49 80 10 14 39 57 65 97 57
86 149 185 193 207 37 19 106 21 154 5 19 -7 54 -31 79 -55 58 -55 104 -74
182 -74 52 0 71 5 103 27 62 41 113 90 188 178 106 125 193 202 251 222 41 15
75 42 186 153 171 170 254 269 311 371 9 16 23 36 30 45 33 40 209 384 209
410 0 8 4 22 9 32 19 36 51 112 51 122 0 6 14 52 31 103 16 51 41 146 55 212
13 66 31 150 38 186 34 151 44 298 39 534 -6 232 -10 260 -48 305 -7 8 -26 38
-41 65 -53 93 -69 117 -101 157 -18 22 -33 46 -33 54 0 8 -4 14 -9 14 -5 0
-29 28 -54 63 -25 34 -73 96 -107 137 -34 41 -78 95 -98 119 -43 52 -330 357
-428 455 -12 11 -61 66 -110 121 -160 182 -174 191 -264 180 -57 -7 -132 -26
-145 -36 -17 -12 -187 -68 -230 -74 -52 -8 -92 8 -107 42 -32 72 -114 171
-188 226 -37 27 -152 62 -230 70 -25 3 -70 1 -100 -3z m63 -141 c98 -34 216
-95 258 -135 14 -13 28 -24 31 -24 13 0 207 -199 263 -270 33 -41 63 -77 66
-80 4 -3 37 -49 75 -102 38 -53 83 -116 99 -139 17 -23 35 -50 40 -59 6 -9 18
-24 28 -34 9 -10 22 -27 28 -38 12 -22 111 -162 151 -213 13 -16 28 -38 34
-50 16 -30 142 -194 202 -264 47 -53 51 -62 35 -67 -10 -3 -27 -10 -38 -14
-66 -27 -198 -72 -272 -94 -23 -6 -45 -15 -49 -19 -4 -4 -17 -7 -29 -7 -13 0
-29 -7 -36 -16 -12 -14 -9 -20 21 -46 33 -30 35 -31 114 -25 45 3 108 13 141
21 32 9 70 16 84 16 l24 0 -22 -19 c-20 -17 -38 -24 -148 -51 -24 -6 -43 -15
-43 -20 0 -20 57 -23 181 -10 158 16 203 7 224 -44 12 -28 12 -53 0 -167 -7
-74 -19 -190 -25 -259 -6 -69 -15 -147 -20 -175 -5 -27 -16 -129 -25 -225 -9
-96 -20 -204 -26 -240 -5 -36 -14 -101 -18 -145 -25 -219 -60 -373 -131 -570
-32 -90 -148 -325 -160 -325 -11 0 -14 7 -25 54 -5 26 -85 116 -103 116 -4 0
-31 16 -61 35 -94 60 -204 56 -252 -8 -59 -77 -143 -206 -168 -255 -15 -29
-28 -42 -39 -40 -20 4 -40 66 -41 129 -1 50 24 146 44 169 7 8 25 38 39 65 15
28 42 75 61 105 35 56 71 120 98 175 35 69 66 209 86 390 12 105 28 237 36
295 27 201 38 411 32 660 -6 271 -17 379 -53 550 -13 63 -24 124 -24 134 0 97
-266 378 -536 566 -12 8 -50 35 -84 60 -34 25 -70 50 -79 55 -9 6 -50 35 -91
66 -41 31 -91 67 -111 80 -103 68 -245 172 -252 185 -5 8 -2 25 6 42 8 15 23
46 33 70 19 47 81 109 141 142 21 11 70 38 108 60 39 21 73 39 78 39 4 1 49
-13 100 -30z m1025 -238 c36 -19 82 -59 112 -97 44 -56 135 -163 165 -194 19
-20 35 -39 35 -44 0 -4 9 -15 19 -24 17 -15 294 -336 391 -452 19 -23 40 -47
46 -54 22 -24 101 -115 134 -155 19 -24 61 -70 92 -103 32 -34 55 -65 52 -69
-3 -5 -19 -9 -35 -9 -35 0 -147 -34 -200 -61 -20 -10 -69 -30 -110 -45 -151
-53 -181 -53 -229 -6 -34 35 -45 55 -60 120 -8 37 -28 73 -61 115 -26 34 -61
79 -76 100 -15 21 -39 50 -52 65 -13 15 -35 45 -49 67 -13 22 -43 63 -66 90
-49 59 -97 122 -111 146 -5 9 -23 33 -40 53 -41 51 -84 106 -125 163 -37 50
-148 193 -179 230 -95 113 -96 110 15 136 39 9 87 24 105 32 52 22 181 20 227
-4z m-1578 -198 c119 -62 191 -105 240 -141 25 -18 54 -39 65 -48 51 -37 145
-109 194 -147 29 -23 66 -51 81 -62 15 -11 74 -56 131 -100 136 -105 158 -121
197 -146 56 -37 51 -42 -148 -147 -107 -55 -170 -102 -211 -154 -28 -35 -32
-48 -33 -101 l-1 -62 140 0 140 0 0 -49 c0 -28 5 -51 11 -53 7 -2 52 7 100 21
104 30 241 59 255 54 11 -4 12 -56 24 -668 8 -435 1 -567 -39 -770 -27 -136
-29 -146 -55 -205 -54 -121 -115 -237 -127 -242 -8 -3 -38 4 -67 16 -68 29
-154 37 -212 21 -34 -9 -62 -29 -105 -73 -33 -32 -62 -68 -65 -78 -4 -11 -16
-19 -29 -19 -16 0 -28 12 -44 45 -26 53 -27 90 -10 296 l12 146 30 9 c30 9 31
10 30 69 -1 33 -5 227 -8 430 -7 382 -17 509 -56 661 -44 171 -162 278 -355
323 -44 10 -60 22 -140 106 -83 87 -94 95 -128 95 -26 0 -37 -4 -37 -15 0 -8
41 -74 90 -147 50 -73 90 -141 90 -152 0 -26 -48 -106 -64 -106 -7 0 -19 12
-27 27 -8 15 -51 82 -95 149 -82 121 -100 151 -128 212 -27 57 -66 31 -66 -44
0 -56 100 -258 137 -278 43 -22 93 -76 114 -123 16 -34 21 -81 29 -250 9 -219
14 -241 69 -351 l31 -61 -33 -15 c-17 -8 -57 -22 -87 -30 -99 -28 -201 -75
-236 -108 -38 -36 -94 -117 -94 -137 0 -6 16 -19 35 -28 33 -16 38 -16 88 0
75 24 103 22 123 -8 16 -25 48 -33 59 -15 3 5 58 35 123 65 64 31 125 61 134
66 44 23 56 13 82 -74 14 -46 32 -116 41 -156 8 -40 17 -77 20 -81 2 -4 13
-61 24 -127 27 -164 79 -380 99 -410 15 -24 15 -26 -2 -39 -16 -11 -23 -11
-45 5 -55 39 -113 43 -178 13 -60 -28 -88 -49 -121 -96 -31 -43 -31 -45 -25
-130 5 -71 3 -86 -9 -86 -18 0 -38 20 -38 39 0 14 -63 145 -100 207 -10 17
-46 85 -80 150 -135 257 -163 309 -172 312 -4 2 -8 11 -8 21 0 9 -5 22 -11 28
-6 6 -27 44 -48 84 -37 74 -97 185 -145 269 -14 25 -34 64 -45 86 -11 23 -31
60 -45 83 -14 22 -26 45 -26 50 0 5 -19 40 -42 77 -22 38 -72 127 -109 199
-72 136 -123 230 -139 255 -5 8 -23 45 -41 83 -23 48 -37 67 -51 67 -22 0 -98
-46 -98 -60 0 -5 12 -42 26 -82 19 -51 45 -96 87 -148 34 -41 65 -78 70 -81 5
-4 7 -15 5 -25 -3 -15 -11 -18 -38 -16 -52 4 -137 59 -217 140 -55 56 -77 72
-85 64 -8 -8 -9 -18 -1 -34 6 -13 17 -39 24 -58 22 -59 76 -136 121 -173 52
-42 77 -55 197 -102 108 -42 160 -80 198 -144 24 -41 27 -56 27 -146 1 -89 -2
-107 -28 -164 -28 -63 -66 -121 -126 -191 -80 -94 -98 -115 -138 -158 -24 -26
-52 -59 -63 -75 -18 -23 -18 -28 -5 -33 17 -7 73 24 125 69 42 36 185 198 201
226 13 26 40 27 40 2 0 -10 -27 -59 -60 -109 -37 -56 -62 -105 -66 -131 -10
-62 13 -53 87 32 105 119 175 187 192 187 10 0 23 -16 32 -37 9 -21 22 -44 29
-53 15 -17 50 -85 161 -315 42 -88 108 -223 146 -299 65 -133 82 -187 59 -201
-5 -3 -10 -13 -10 -21 0 -18 -75 -148 -105 -183 -35 -41 -110 -111 -118 -111
-5 0 -23 -11 -40 -23 -18 -13 -48 -30 -67 -37 -19 -7 -40 -17 -46 -22 -21 -15
-269 -95 -334 -107 -36 -7 -82 -17 -103 -23 -29 -9 -71 -9 -169 1 -72 7 -138
17 -147 21 -9 4 -36 13 -61 20 -25 7 -58 18 -75 25 -60 27 -162 65 -173 65
-19 0 -14 -17 8 -33 29 -20 96 -111 110 -150 6 -18 16 -39 21 -47 4 -8 16 -30
25 -48 18 -36 73 -82 121 -101 26 -10 50 -11 115 -2 46 6 151 18 233 26 162
17 260 31 274 39 14 9 41 -4 41 -19 0 -7 -12 -39 -26 -71 -49 -111 -153 -411
-179 -518 -24 -101 -33 -115 -73 -122 -76 -14 -272 4 -384 36 -114 32 -267 99
-299 131 -10 10 -23 19 -28 19 -38 0 -292 258 -347 351 -6 11 -17 27 -26 36
-22 27 -78 122 -78 134 0 6 25 33 55 61 30 27 55 54 55 60 0 5 11 24 24 41 13
18 36 68 52 112 26 74 28 92 28 230 1 115 -4 177 -21 265 -34 175 -63 400 -63
482 1 71 28 213 68 353 11 39 27 99 36 135 52 213 109 412 147 515 12 35 69
197 94 270 18 52 73 198 104 275 10 25 26 68 36 95 35 100 72 201 87 235 8 19
21 53 28 75 7 22 20 56 28 75 8 19 30 76 48 125 18 50 44 122 58 161 47 132
113 221 187 253 25 11 107 36 183 56 175 44 215 62 271 122 25 26 49 52 54 56
5 5 17 17 28 26 10 10 38 42 63 72 60 71 123 132 190 182 53 40 75 53 130 74
31 12 108 -11 210 -64z m1085 -809 c15 -20 23 -39 19 -44 -13 -11 -70 -27
-149 -40 -71 -12 -171 -34 -235 -50 -50 -14 -80 -12 -80 4 0 12 46 33 110 51
14 4 40 13 58 21 17 8 47 20 65 28 17 8 43 17 56 21 14 4 38 16 55 26 46 28
70 24 101 -17z m-68 -162 c2 -15 -4 -17 -31 -14 -19 2 -37 -1 -40 -7 -8 -12
-57 -14 -94 -5 -23 6 -23 7 5 22 25 14 141 32 152 24 3 -1 6 -10 8 -20z m1650
-145 c15 -14 15 -17 1 -22 -25 -10 -193 -1 -190 10 9 34 158 43 189 12z m-734
-54 c-13 -2 -35 -2 -50 0 -16 2 -5 4 22 4 28 0 40 -2 28 -4z m402 -49 c13 -5
10 -10 -16 -26 -30 -18 -30 -20 -14 -38 33 -36 102 -51 185 -40 69 9 152 28
191 44 34 15 38 -13 24 -184 -13 -169 -41 -357 -55 -375 -4 -5 -11 -28 -15
-50 -7 -40 -68 -233 -104 -330 -22 -59 -82 -245 -106 -332 -21 -72 -15 -69
-167 -79 -89 -5 -116 -4 -152 10 -79 30 -79 31 -62 207 9 85 23 242 31 349 9
107 20 231 25 275 5 44 16 188 25 319 9 132 18 244 21 248 6 9 165 11 189 2z
m-2184 -119 c4 -3 2 -22 -4 -43 -8 -23 -12 -123 -12 -273 0 -235 0 -236 25
-272 27 -40 78 -79 150 -113 52 -25 91 -65 110 -112 12 -30 5 -100 -16 -174
-8 -26 -17 -23 -99 32 -230 155 -345 375 -345 659 0 87 5 135 21 191 22 80 32
97 64 111 19 8 89 4 106 -6z m188 -210 c21 -61 24 -89 25 -215 l1 -145 -47 -3
c-64 -4 -73 14 -84 153 -12 157 -10 205 9 248 14 33 21 38 44 35 24 -3 30 -11
52 -73z m-7 -927 c-9 -9 -15 -9 -24 0 -9 9 -7 12 12 12 19 0 21 -3 12 -12z
m1843 -260 c66 -11 126 -27 134 -34 12 -11 9 -23 -19 -78 -19 -36 -54 -87 -79
-114 -25 -26 -68 -73 -96 -104 l-50 -56 -69 3 c-38 2 -73 8 -78 13 -5 5 9 61
35 138 24 72 47 152 51 179 8 52 20 75 40 75 6 0 65 -10 131 -22z m-1414 -361
c20 -12 50 -31 67 -42 53 -34 64 -112 21 -151 -28 -25 -169 -16 -231 15 -56
29 -60 47 -21 98 24 32 109 102 123 103 3 0 21 -10 41 -23z m-361 -137 c0 -5
8 -10 19 -10 10 0 21 -9 24 -20 6 -22 27 -28 27 -7 0 6 7 -1 15 -17 8 -15 15
-34 15 -41 0 -37 -134 -83 -146 -50 -4 8 -3 23 2 33 4 9 8 22 9 27 0 6 4 16 8
22 6 9 2 12 -14 10 -12 -1 -24 4 -26 11 -6 16 39 16 55 0 9 -9 12 -8 12 4 0 9
-7 24 -16 32 -14 15 -14 16 0 16 9 0 16 -4 16 -10z m-170 -30 c25 -22 21 -50
-7 -50 -10 0 -31 -7 -47 -15 -32 -17 -56 -14 -56 8 0 9 75 77 85 77 1 0 12 -9
25 -20z m1173 -116 c40 -26 44 -33 25 -52 -33 -33 -118 5 -118 53 0 42 26 42
93 -1z m-1067 -39 c18 -47 -142 -145 -237 -145 -45 0 -53 12 -53 72 -1 57 24
76 103 81 162 8 181 7 187 -8z m903 -40 c165 -63 214 -102 209 -164 -3 -32 -6
-36 -43 -44 -73 -16 -180 -2 -247 32 -33 17 -66 31 -74 31 -7 0 -18 9 -24 20
-8 15 -5 25 19 52 15 18 36 48 45 66 20 39 30 39 115 7z m-544 -15 c26 -6 52
-22 74 -46 29 -32 33 -41 27 -75 -10 -65 -82 -163 -172 -234 -20 -16 -44 -38
-53 -49 -18 -20 -77 -62 -125 -88 -29 -15 -94 -25 -216 -33 -88 -5 -299 23
-391 53 -81 26 -84 28 -82 56 4 54 55 139 98 164 38 22 45 23 165 16 211 -13
228 -12 295 24 55 30 105 83 105 112 0 26 52 90 78 96 15 3 32 7 37 9 21 7
122 4 160 -5z m-2697 -210 c5 -46 -16 -187 -33 -225 -7 -16 -21 -52 -31 -79
-20 -50 -157 -206 -182 -206 -27 0 -23 33 12 103 20 41 36 77 36 81 0 4 11 31
24 59 13 29 34 81 46 117 12 36 26 70 30 75 4 6 10 24 14 40 12 48 35 77 59
73 17 -2 23 -11 25 -38z m1774 -370 c43 -21 96 -44 118 -50 73 -20 130 -49
130 -66 0 -9 -15 -30 -32 -46 -33 -31 -33 -31 -120 -24 -146 10 -188 39 -188
128 0 16 -4 38 -10 48 -11 21 -3 50 14 50 6 0 46 -18 88 -40z m-232 -20 c0 -5
7 -10 15 -10 12 0 15 -13 15 -59 0 -33 2 -65 3 -73 2 -7 2 -10 0 -5 -7 11 -31
9 -39 -4 -3 -6 0 -15 7 -20 11 -7 11 -9 1 -9 -7 0 -24 12 -38 27 -13 14 -25
24 -27 22 -12 -19 -26 -61 -31 -94 -16 -118 -76 -286 -149 -420 -6 -11 -25
-47 -42 -80 -74 -140 -93 -170 -110 -174 -15 -3 -17 2 -12 36 8 51 63 226 88
280 10 24 19 45 19 49 0 3 14 35 30 71 17 35 30 66 30 69 0 2 13 32 28 66 16
35 39 87 52 116 13 28 27 52 32 52 4 0 8 7 8 16 0 9 7 22 17 29 9 7 14 19 10
29 -8 20 -27 21 -27 1 0 -8 -4 -15 -10 -15 -18 0 -11 15 25 53 30 32 39 36 67
30 30 -6 32 -5 19 10 -12 15 -11 17 3 17 9 0 16 -4 16 -10z m835 -42 c-6 -17
-4 -20 10 -14 12 4 18 0 22 -14 4 -16 8 -18 19 -9 32 27 5 -62 -36 -116 -28
-38 -70 -130 -65 -145 8 -25 -12 -35 -31 -16 -9 9 -19 14 -24 11 -5 -3 -16 10
-26 30 -9 19 -20 35 -25 35 -5 0 -6 7 -3 15 9 22 -14 45 -45 46 -21 1 -22 2
-5 6 12 2 26 15 33 29 7 16 17 24 26 20 8 -3 17 -1 20 3 5 9 -21 17 -90 29
-47 8 -59 36 -23 53 18 8 38 7 78 -3 44 -10 56 -18 61 -38 7 -24 7 -24 8 -2 1
13 -8 33 -19 44 -25 27 -12 45 20 28 17 -9 25 -9 38 3 9 8 26 17 37 20 11 2
21 5 23 6 2 0 0 -9 -3 -21z m-1035 -61 c0 -20 -22 -37 -47 -37 -27 0 -30 18
-5 36 22 17 52 18 52 1z m565 -157 c24 -17 46 -34 50 -39 5 -9 -50 -166 -66
-187 -9 -11 -22 -46 -105 -284 -26 -74 -57 -148 -70 -163 -13 -16 -24 -32 -24
-37 0 -5 -26 -25 -57 -44 -55 -35 -61 -36 -151 -36 -100 0 -116 9 -94 53 16
34 23 57 37 117 39 168 98 387 110 411 8 15 22 49 31 76 18 52 71 140 97 162
47 38 165 24 242 -29z m269 -11 c6 -5 4 -16 -6 -26 -8 -10 -23 -36 -33 -58
-22 -51 -134 -284 -148 -310 -6 -11 -35 -67 -65 -125 -61 -119 -86 -150 -103
-133 -9 9 -5 32 15 93 14 45 26 86 26 92 0 14 100 250 112 265 6 7 23 39 38
72 15 32 33 62 39 65 6 4 11 18 11 32 0 42 80 65 114 33z m116 -119 c0 -13 -7
-20 -20 -20 -13 0 -20 -7 -20 -20 0 -11 -8 -39 -19 -63 -34 -79 -41 -98 -41
-118 0 -10 -4 -27 -9 -37 -5 -9 -23 -53 -41 -98 -22 -59 -42 -91 -71 -117 -43
-40 -52 -43 -67 -24 -11 14 -7 27 29 82 14 22 53 103 88 180 98 219 101 224
129 239 37 19 42 19 42 -4z m8 -82 c-6 -18 -28 -21 -28 -4 0 9 7 16 16 16 9 0
14 -5 12 -12z m-961 -390 c-9 -40 -18 -89 -19 -108 -3 -30 -7 -35 -32 -38 -15
-2 -39 -1 -51 2 l-23 6 25 47 c14 27 28 53 32 58 4 6 16 30 25 55 23 57 36 74
49 61 7 -7 5 -34 -6 -83z m643 -104 c13 -33 13 -34 -6 -34 -8 0 -12 5 -9 10 4
6 -9 11 -32 11 -23 1 -29 3 -15 6 12 2 22 11 22 19 0 24 30 15 40 -12z m-819
-69 c12 -19 26 -35 32 -35 7 0 5 -5 -5 -10 -21 -12 -51 -2 -44 15 3 8 -2 16
-10 19 -16 6 -19 46 -4 46 6 0 20 -16 31 -35z"/>
<path d="M4760 3001 c0 -24 7 -36 31 -50 75 -46 260 -69 330 -41 57 22 124 96
92 101 -5 1 -67 2 -138 4 -72 1 -172 6 -223 10 l-92 7 0 -31z"/>
<path d="M1956 4233 c-4 -10 -10 -61 -13 -114 -5 -89 -4 -104 23 -179 16 -46
36 -86 46 -91 25 -13 33 10 19 53 -14 45 -31 178 -31 243 0 82 -27 134 -44 88z"/>
<path d="M4449 3196 c-2 -2 -67 -7 -144 -11 -167 -8 -236 -30 -192 -62 6 -5
38 -19 69 -32 46 -18 67 -21 100 -15 24 4 55 6 70 5 47 -4 106 18 127 48 29
40 28 71 -2 71 -13 0 -26 -2 -28 -4z"/>
<path d="M3460 2864 c-47 -24 -111 -54 -143 -65 -65 -24 -71 -31 -62 -59 8
-26 55 -50 97 -50 27 0 47 12 101 61 37 33 67 65 67 70 0 5 14 22 32 38 30 26
32 52 5 50 -7 -1 -50 -21 -97 -45z"/>
</g>
</svg>
