<?xml version="1.0" standalone="no"?>
<!DOCTYPE svg PUBLIC "-//W3C//DTD SVG 20010904//EN"
 "http://www.w3.org/TR/2001/REC-SVG-20010904/DTD/svg10.dtd">
<svg version="1.0" xmlns="http://www.w3.org/2000/svg"
 width="728.000000pt" height="710.000000pt" viewBox="0 0 728.000000 710.000000"
 preserveAspectRatio="xMidYMid meet">
<g transform="translate(0.000000,710.000000) scale(0.100000,-0.100000)"
fill="#000000" stroke="none">
<path d="M3723 6602 c-79 -41 -206 -126 -268 -179 -22 -20 -55 -47 -74 -62
-35 -26 -567 -555 -573 -569 -6 -15 -285 -250 -328 -277 -25 -15 -47 -31 -50
-35 -3 -3 -52 -30 -110 -59 -58 -29 -112 -59 -121 -67 -8 -8 -19 -14 -22 -14
-10 0 -213 -132 -269 -175 -57 -44 -131 -129 -145 -170 -6 -16 -14 -97 -17
-180 -3 -82 -10 -195 -16 -250 -16 -142 -58 -462 -75 -580 -27 -179 -60 -383
-69 -425 -3 -14 -12 -74 -21 -135 -9 -60 -21 -128 -27 -150 -6 -22 -21 -98
-33 -170 -28 -161 -60 -330 -85 -455 -10 -52 -24 -126 -30 -165 -14 -91 -27
-162 -44 -255 -8 -41 -18 -104 -22 -140 -3 -36 -15 -105 -26 -155 -10 -49 -30
-189 -43 -310 -14 -121 -29 -245 -35 -275 -5 -30 -13 -170 -16 -310 -6 -256
-9 -279 -55 -437 -57 -199 -65 -271 -38 -359 15 -48 81 -73 229 -85 66 -5 125
-7 130 -4 11 7 2 35 -11 35 -21 0 -249 103 -264 120 -20 22 -10 72 54 275 26
83 53 171 59 198 16 64 15 164 -2 229 -12 49 -12 69 9 208 30 202 62 396 81
490 8 41 23 131 33 200 11 69 23 143 29 165 6 22 16 83 22 135 7 52 21 133 32
179 18 74 41 215 67 407 5 34 16 95 25 135 9 41 22 119 30 174 8 59 29 141 51
200 36 99 59 162 109 302 14 40 33 87 42 105 18 33 33 72 93 238 17 47 35 94
40 105 5 11 15 38 21 60 6 22 20 58 30 80 10 22 33 83 50 135 17 52 34 102 39
110 4 8 14 37 22 63 15 52 30 68 235 252 49 44 125 114 169 155 44 41 87 82
96 90 8 8 60 56 114 105 173 158 376 345 499 459 65 61 126 111 135 111 13 0
16 -12 17 -55 2 -86 3 -90 22 -90 12 0 24 18 40 59 25 63 35 77 67 83 14 2 21
14 26 41 10 62 31 77 112 77 72 0 127 -8 277 -40 47 -10 141 -24 210 -30 69
-6 170 -21 224 -33 93 -21 100 -24 109 -51 7 -21 6 -45 -2 -77 -7 -27 -10 -53
-6 -59 4 -6 31 7 71 35 101 70 130 64 239 -54 93 -100 108 -117 140 -156 17
-19 37 -43 45 -53 9 -9 40 -46 70 -82 30 -36 92 -104 137 -152 91 -96 97 -112
63 -178 -13 -26 -36 -48 -67 -66 -27 -15 -59 -34 -72 -43 -77 -52 -132 -62
-216 -40 -98 25 -140 57 -350 268 -201 201 -193 189 -194 338 -1 45 -4 84 -9
86 -4 3 -19 3 -35 0 -23 -5 -27 -10 -27 -38 0 -43 -45 -89 -120 -123 -49 -23
-71 -26 -208 -30 -150 -4 -153 -4 -207 23 -29 15 -78 52 -108 81 -59 58 -94
71 -81 32 16 -53 25 -66 83 -123 33 -33 61 -69 61 -80 0 -36 -53 -169 -85
-212 -17 -23 -45 -52 -61 -66 -41 -34 -149 -87 -178 -87 -41 0 -76 -18 -89
-47 -9 -21 -9 -27 2 -31 7 -2 27 -17 44 -32 26 -23 31 -37 38 -95 10 -78 25
-104 34 -59 12 61 36 134 46 140 19 11 38 -30 39 -84 0 -90 -21 -245 -40 -292
-10 -25 -21 -69 -24 -97 -7 -69 -30 -116 -72 -148 -29 -22 -51 -28 -127 -36
-51 -4 -120 -9 -154 -9 -53 0 -63 -3 -63 -17 0 -10 15 -28 34 -40 27 -17 33
-26 29 -47 -3 -14 -4 -26 -2 -27 2 0 49 -6 104 -12 l99 -12 24 -75 c21 -68 23
-86 18 -190 -23 -436 -21 -506 24 -640 36 -106 50 -250 45 -460 -7 -276 -31
-431 -95 -620 -54 -158 -107 -262 -189 -370 -18 -25 -47 -72 -63 -105 -44 -93
-165 -213 -251 -249 -18 -8 -54 -23 -82 -35 -114 -47 -233 -62 -470 -60 -193
2 -220 0 -220 -14 0 -33 69 -72 174 -96 102 -24 117 -35 84 -62 -11 -10 -48
-14 -127 -15 -138 0 -136 0 -136 -24 0 -47 141 -80 260 -61 41 7 68 7 74 1 12
-12 -16 -206 -55 -388 -32 -146 -36 -201 -16 -203 28 -3 202 3 206 7 3 2 8 30
12 62 4 31 12 99 19 151 6 51 18 114 25 140 39 138 45 164 45 185 0 30 32 44
100 44 69 0 94 -12 85 -41 -26 -86 -54 -233 -55 -287 0 -19 -10 -66 -21 -105
-12 -38 -23 -88 -26 -111 l-5 -41 59 -6 c73 -8 87 6 97 95 3 35 13 88 22 118
9 30 24 91 34 135 10 44 30 116 43 160 14 44 28 96 31 116 8 45 25 61 68 62
l33 2 -2 -55 c-1 -30 -4 -84 -7 -120 -3 -36 -11 -123 -17 -195 -5 -72 -20
-169 -31 -218 -12 -48 -18 -90 -15 -94 9 -9 116 -15 143 -9 21 6 22 12 29 153
4 82 10 171 15 198 23 138 63 331 88 428 42 157 63 176 262 232 64 18 136 43
159 54 40 21 389 364 811 797 96 98 413 420 705 715 569 576 652 663 670 706
11 26 68 234 116 423 40 154 67 254 94 335 21 66 51 163 71 234 3 7 11 48 20
90 8 42 24 100 35 129 10 29 19 66 19 81 0 49 -58 120 -135 168 -67 42 -72 43
-131 37 -33 -4 -93 -1 -133 6 -70 12 -75 14 -138 77 -49 49 -74 85 -103 146
-21 45 -41 98 -44 117 -9 44 -55 208 -65 235 -5 11 -19 43 -32 70 -12 28 -27
61 -33 75 -10 22 -77 128 -98 155 -51 65 -111 131 -148 162 -66 57 -218 173
-227 173 -5 0 -19 12 -32 25 -13 14 -29 25 -36 25 -7 0 -19 8 -26 17 -17 20
-194 137 -269 177 -171 90 -237 120 -350 155 -69 22 -156 45 -195 51 -38 7
-83 16 -99 21 -56 17 -109 9 -183 -29z m317 -85 c112 -40 146 -54 200 -77 75
-34 209 -104 253 -132 20 -13 58 -36 84 -52 26 -16 73 -45 103 -64 30 -19 71
-45 90 -57 19 -12 61 -38 92 -58 32 -20 60 -37 63 -37 4 0 23 -13 43 -29 20
-16 52 -37 71 -47 46 -25 133 -80 149 -94 9 -8 11 -22 7 -42 -8 -33 16 -68 45
-68 31 0 65 -37 79 -86 8 -27 27 -74 42 -104 55 -111 83 -209 84 -295 0 -104
-27 -195 -59 -195 -7 0 -39 60 -70 133 -32 72 -74 164 -92 204 -19 40 -34 76
-34 80 0 5 -10 24 -23 43 -13 19 -29 51 -37 70 -7 19 -21 44 -31 55 -9 11 -25
36 -36 56 -60 119 -207 279 -279 306 -11 3 -30 15 -43 25 -13 10 -42 23 -65
29 -34 9 -142 55 -208 90 -10 5 -26 13 -35 18 -16 8 -233 110 -378 177 -27 12
-77 33 -110 46 -60 23 -60 24 -59 63 1 27 8 44 24 57 24 20 39 18 130 -15z
m-270 -169 c52 -17 104 -37 115 -44 11 -7 40 -18 65 -25 25 -7 59 -21 75 -31
17 -10 36 -18 43 -18 25 0 393 -180 532 -260 47 -27 92 -52 100 -56 8 -4 31
-19 50 -33 19 -14 48 -35 66 -46 125 -79 138 -92 124 -129 -13 -35 -3 -56 27
-56 13 0 34 -5 46 -11 31 -16 77 -61 77 -75 0 -6 6 -17 14 -23 8 -7 18 -27 22
-44 3 -18 21 -64 40 -104 45 -97 50 -121 29 -129 -24 -10 -89 12 -123 41 -17
14 -35 25 -41 25 -11 0 -209 194 -355 348 -43 45 -85 82 -92 82 -19 0 -236 28
-339 44 -49 8 -139 20 -200 26 -60 6 -168 20 -240 30 -71 11 -173 24 -225 29
l-95 11 -35 -35 c-60 -60 -82 -80 -169 -155 -46 -39 -91 -80 -100 -90 -9 -10
-59 -55 -111 -101 -52 -45 -117 -103 -145 -129 -85 -80 -197 -182 -279 -255
-44 -38 -100 -90 -125 -115 -25 -24 -68 -64 -96 -89 -54 -47 -226 -207 -303
-281 -32 -30 -52 -60 -61 -90 -7 -25 -17 -53 -22 -63 -10 -18 -24 -58 -138
-397 -69 -202 -88 -250 -100 -250 -16 0 -18 24 -10 80 5 30 13 96 18 145 6 50
15 119 20 155 6 36 20 146 31 245 11 99 23 192 26 206 3 15 41 64 87 111 45
47 159 163 252 260 94 96 212 221 264 279 52 57 125 133 162 169 36 36 120
121 185 190 65 69 186 195 269 281 238 247 275 288 275 298 0 6 9 15 21 21 16
9 25 8 40 -6 10 -9 19 -22 18 -28 -1 -6 -1 -28 0 -48 2 -56 28 -50 54 12 22
52 41 62 62 33 19 -25 32 -8 40 50 9 67 22 91 43 82 9 -4 60 -20 112 -37z
m-1395 -1018 c9 -14 -6 -36 -44 -64 -18 -14 -54 -44 -80 -68 -25 -24 -86 -80
-136 -123 -49 -44 -128 -117 -175 -162 -46 -46 -92 -83 -102 -83 -44 0 -9 158
50 224 18 20 129 96 140 96 4 0 23 11 43 24 20 14 76 46 125 72 49 26 105 58
124 70 40 26 46 28 55 14z m3220 -349 c24 -76 25 -85 11 -100 -14 -14 -19 -12
-51 19 -40 39 -64 101 -57 150 12 91 55 60 97 -69z m-1797 90 c2 -13 -1 -28
-7 -34 -6 -6 -11 -21 -11 -33 0 -23 -44 -84 -61 -84 -15 0 -10 44 11 88 11 22
20 50 20 61 0 37 43 38 48 2z m505 -32 c88 -44 115 -66 272 -223 120 -121 151
-147 217 -179 42 -21 94 -41 115 -44 54 -8 84 -26 126 -72 31 -35 37 -48 37
-86 0 -47 -39 -138 -84 -200 -13 -16 -33 -56 -46 -87 -17 -42 -38 -70 -79
-105 -31 -26 -81 -75 -111 -107 -196 -212 -296 -289 -400 -308 -61 -10 -73 -7
-125 34 -5 4 -59 44 -120 89 -60 45 -126 95 -145 111 -159 132 -212 177 -256
217 -29 25 -70 62 -93 81 -23 19 -41 39 -41 45 0 5 11 32 24 60 33 67 73 167
97 240 91 277 199 449 324 513 120 61 196 67 288 21z m1667 -186 c88 -42 135
-91 133 -141 -5 -119 -82 -357 -175 -537 -29 -57 -83 -226 -103 -323 -9 -45
-15 -113 -13 -152 1 -38 0 -71 -2 -73 -3 -2 -26 -16 -52 -31 -47 -27 -48 -29
-48 -76 0 -27 -5 -62 -12 -77 -39 -90 -191 -273 -333 -401 -33 -30 -100 -91
-149 -136 -49 -44 -97 -85 -107 -91 -9 -5 -39 -31 -66 -56 -27 -26 -71 -66
-99 -89 -27 -23 -63 -55 -80 -71 -20 -19 -37 -27 -48 -23 -22 8 -66 84 -66
113 0 30 -56 165 -152 361 -99 205 -102 210 -116 235 -6 11 -25 47 -41 80 -15
33 -36 74 -45 91 -18 36 -12 64 13 64 40 0 108 -98 206 -297 54 -109 106 -214
116 -234 11 -20 19 -42 19 -48 0 -6 11 -36 25 -67 19 -42 28 -55 36 -47 9 9 6
26 -9 65 -11 29 -26 73 -33 98 -7 25 -25 72 -40 105 -15 33 -44 98 -64 145
-21 47 -45 103 -55 125 -10 22 -25 56 -33 75 -8 19 -22 51 -31 72 -9 20 -16
41 -16 46 0 6 43 48 95 94 53 46 132 120 177 166 53 53 89 82 104 82 15 0 35
-18 65 -57 23 -32 54 -74 69 -93 14 -19 53 -75 85 -125 99 -150 190 -226 287
-240 44 -7 50 -5 78 24 42 42 38 51 -30 79 -92 36 -118 52 -183 116 -40 39
-105 114 -144 166 -39 52 -81 108 -93 123 -20 26 -22 36 -17 125 5 104 30 177
93 272 55 84 84 107 140 113 49 5 151 59 169 88 13 21 133 69 172 69 49 0 70
21 112 110 35 73 40 133 15 168 -13 19 -14 26 -3 39 11 12 30 14 99 11 68 -4
98 -10 150 -35z m-592 -104 c45 -44 82 -88 82 -96 0 -24 -45 -78 -85 -103 -42
-26 -136 -41 -181 -28 -47 13 -84 45 -84 74 0 36 13 57 75 115 31 29 65 67 76
86 11 18 24 33 28 33 3 0 44 -36 89 -81z m263 21 c29 -16 23 -52 -18 -93 -49
-52 -67 -46 -71 22 -2 29 -1 60 2 67 6 16 59 18 87 4z m-1991 -9 c0 -12 -44
-61 -55 -61 -5 0 -17 -8 -27 -17 -14 -12 -21 -14 -30 -5 -8 8 -7 13 5 18 9 3
17 12 17 19 0 14 56 53 78 54 6 1 12 -3 12 -8z m-12 -113 c4 -34 -29 -56 -48
-32 -10 11 -10 20 -1 40 15 33 45 28 49 -8z m64 -714 c62 -52 140 -119 173
-148 33 -29 78 -65 100 -79 22 -15 60 -43 85 -61 25 -19 76 -56 113 -82 74
-51 80 -69 32 -94 -34 -17 -242 -18 -330 -1 -61 11 -87 1 -53 -21 24 -16 34
-19 133 -41 53 -12 60 -16 60 -38 0 -22 -10 -27 -109 -60 -126 -42 -146 -52
-146 -78 0 -38 23 -43 106 -26 42 9 80 17 83 19 3 2 53 14 111 26 116 24 143
36 179 74 40 43 151 34 151 -12 0 -8 27 -69 59 -136 171 -351 228 -486 250
-594 20 -95 17 -105 -48 -174 -99 -105 -161 -174 -186 -208 -13 -18 -43 -53
-67 -79 -24 -25 -54 -59 -66 -76 -73 -95 -453 -485 -473 -485 -4 0 -20 -10
-36 -23 -15 -13 -44 -32 -63 -43 -19 -10 -42 -24 -50 -30 -28 -22 -147 -83
-214 -110 -51 -20 -75 -25 -108 -20 -24 4 -62 9 -85 12 -23 3 -49 14 -58 24
-15 16 -15 21 -1 47 15 30 82 83 105 83 21 0 75 31 93 54 10 11 18 31 18 42 0
12 7 41 16 65 36 102 53 272 63 634 5 160 6 296 3 303 -3 9 -14 11 -32 7 -20
-4 -29 -2 -34 10 -17 45 -37 553 -31 790 10 386 14 431 46 477 11 14 19 31 19
37 0 7 7 23 15 36 8 14 22 36 30 50 9 14 19 25 24 25 5 0 60 -43 123 -96z
m-264 -2056 c2 -38 -5 -84 -22 -141 -29 -100 -42 -127 -61 -127 -21 0 -25 14
-15 46 15 49 28 106 40 174 20 112 20 112 38 108 13 -2 18 -16 20 -60z m-201
-603 c20 -25 28 -47 29 -77 0 -23 -2 -36 -4 -30 -4 14 -42 16 -42 2 0 -5 7
-13 16 -18 12 -7 13 -11 5 -16 -7 -4 -18 -2 -26 4 -12 10 -16 9 -22 -6 -4 -10
-2 -19 5 -22 7 -2 12 -8 12 -14 0 -6 -6 -8 -14 -5 -13 5 -32 -26 -81 -135 -20
-45 -30 -49 -88 -35 -37 8 -54 7 -89 -6 -53 -21 -58 -21 -58 -2 0 21 -8 19
-32 -7 l-20 -23 5 23 c4 15 -1 26 -14 32 -27 15 -25 90 3 90 10 0 18 5 18 10
0 6 7 10 16 10 16 0 102 58 137 93 10 10 15 22 12 27 -9 15 21 41 39 34 9 -3
16 -2 16 4 0 5 18 30 41 56 33 38 47 46 74 46 27 0 40 -7 62 -35z m-627 -309
c0 -2 -7 -9 -15 -16 -12 -10 -15 -10 -15 4 0 9 7 16 15 16 8 0 15 -2 15 -4z
m180 -56 c0 -23 -65 -87 -97 -95 -19 -4 -32 -1 -45 13 -19 19 -19 20 29 62 26
23 57 46 68 50 23 9 45 -5 45 -30z m-251 -8 c12 -22 -9 -85 -40 -118 -25 -27
-60 -31 -78 -10 -7 8 -19 13 -29 11 -9 -1 -11 0 -4 2 17 6 15 33 -3 33 -15 0
-32 46 -21 58 4 3 10 -5 13 -18 6 -22 7 -23 14 -4 11 29 10 42 -3 47 -7 2 -1
2 14 0 15 -3 34 -1 42 4 30 16 85 14 95 -5z m341 -29 c0 -5 -5 -15 -10 -23 -8
-12 -10 -11 -10 8 0 12 5 22 10 22 6 0 10 -3 10 -7z"/>
<path d="M2850 1023 c0 -5 5 -15 10 -23 8 -12 10 -11 10 8 0 12 -4 22 -10 22
-5 0 -10 -3 -10 -7z"/>
<path d="M2810 992 c0 -13 36 -43 42 -36 4 3 -2 14 -13 25 -21 21 -29 24 -29
11z"/>
</g>
</svg>
