<?xml version="1.0" standalone="no"?>
<!DOCTYPE svg PUBLIC "-//W3C//DTD SVG 20010904//EN"
 "http://www.w3.org/TR/2001/REC-SVG-20010904/DTD/svg10.dtd">
<svg version="1.0" xmlns="http://www.w3.org/2000/svg"
 width="333.000000pt" height="168.000000pt" viewBox="0 0 333.000000 168.000000"
 preserveAspectRatio="xMidYMid meet">

<g transform="translate(0.000000,168.000000) scale(0.100000,-0.100000)"
fill="#000000" stroke="none">
<path d="M745 1307 c-45 -14 -76 -60 -68 -102 12 -61 74 -88 223 -99 81 -5
342 -59 397 -81 44 -18 86 -76 68 -94 -6 -6 -69 -20 -140 -31 -249 -40 -536
-103 -573 -127 -32 -20 -62 -72 -62 -110 0 -23 8 -38 32 -58 29 -25 37 -26 87
-20 31 4 99 16 151 26 52 11 136 22 185 24 50 2 129 13 178 24 48 12 117 24
153 27 l66 7 -17 -33 c-44 -84 31 -180 129 -167 39 5 42 3 74 -40 46 -62 102
-85 220 -91 52 -2 120 1 155 7 120 23 351 91 367 107 13 15 13 16 0 12 -169
-57 -311 -93 -403 -103 l-58 -6 5 38 c2 21 5 49 5 63 1 18 10 29 32 39 17 8
47 27 65 43 29 26 34 36 34 75 0 39 2 44 18 38 9 -3 31 -8 47 -11 30 -4 29 -4
-5 11 -67 29 -85 41 -88 59 -6 28 11 38 44 26 69 -27 216 -8 275 36 40 29 55
30 69 5 13 -26 13 -34 -2 -25 -7 5 1 -10 17 -32 27 -35 30 -46 28 -106 -1 -39
-9 -80 -18 -98 -9 -18 -12 -29 -6 -26 5 4 76 7 156 7 108 1 149 4 159 14 8 8
16 51 20 107 4 51 9 107 11 123 15 121 16 165 1 187 -8 13 -25 54 -36 91 -12
38 -27 70 -33 72 -7 3 -80 6 -164 8 -143 3 -154 4 -177 26 -14 13 -51 32 -83
43 -62 21 -102 23 -573 32 -252 5 -325 14 -435 51 -108 36 -451 57 -530 32z
m355 -31 l85 -12 -2 -45 -2 -44 11 43 c8 31 16 42 30 42 43 0 210 -45 215 -57
3 -8 -4 -24 -15 -36 -21 -24 -57 -135 -47 -146 10 -9 36 31 31 46 -7 18 28 97
54 121 17 16 32 20 59 16 20 -2 104 -6 186 -9 83 -2 151 -4 151 -4 5 -2 -122
-121 -128 -121 -4 0 -8 12 -8 28 0 19 -3 23 -9 13 -7 -11 -11 -10 -20 5 -10
16 -11 12 -5 -21 3 -22 7 -44 8 -50 1 -13 -93 -100 -100 -92 -3 3 -12 23 -20
44 l-14 38 5 -50 c5 -42 0 -63 -29 -134 -67 -158 -98 -161 -127 -9 -26 139
-36 164 -74 182 -20 10 -59 24 -88 33 -82 24 -87 28 -77 64 9 31 9 31 -10 14
-11 -10 -20 -24 -20 -32 0 -18 -89 -8 -149 18 -42 18 -43 20 -36 55 4 24 3 34
-4 29 -6 -3 -11 -22 -11 -42 l0 -36 -87 5 c-100 6 -136 19 -152 56 -16 35 3
81 41 96 34 15 229 10 358 -8z m1199 -126 c64 -36 84 -68 87 -139 4 -92 -11
-141 -52 -178 -46 -41 -123 -67 -178 -61 -43 5 -196 65 -196 76 1 4 21 22 45
40 38 27 76 72 61 72 -2 0 -23 -16 -46 -35 -24 -20 -45 -34 -47 -31 -2 2 3 18
12 36 23 45 12 48 -20 6 -35 -46 -52 -47 -47 -1 3 21 0 35 -7 35 -6 0 -11 -11
-11 -23 0 -27 -71 -132 -99 -147 -10 -5 -21 -22 -24 -37 -9 -43 -81 -145 -123
-173 -27 -18 -51 -25 -85 -25 -56 0 -86 19 -36 22 47 4 71 33 71 90 1 48 -9
60 -66 77 -15 4 -14 11 9 66 22 49 30 60 46 56 13 -3 17 0 13 10 -6 15 242
266 269 272 7 2 29 -4 49 -12 23 -9 38 -11 42 -5 3 6 -5 13 -17 17 -37 11 45
18 186 17 108 -1 125 -3 164 -25z m341 -85 c0 -8 6 -12 14 -9 27 10 57 -17 81
-73 14 -30 25 -73 25 -94 l0 -39 -57 -2 -58 -1 54 -6 c57 -6 77 -24 39 -35
-13 -3 -54 -8 -93 -11 -144 -11 -179 -16 -186 -27 -4 -7 -11 -3 -18 10 -9 18
-8 19 12 15 21 -5 21 -4 -3 16 l-25 21 29 0 c26 0 30 13 5 16 -5 1 -13 2 -19
3 -18 2 -10 20 12 27 19 6 20 8 6 18 -11 8 -17 33 -20 84 -4 83 -15 76 120 73
49 -1 71 2 67 9 -3 5 -14 10 -23 11 -14 0 -13 2 3 8 24 10 35 5 35 -14z m-63
9 c-3 -3 -12 -4 -19 -1 -8 3 -5 6 6 6 11 1 17 -2 13 -5z m-1194 -250 c43 -102
42 -103 -93 -130 -63 -13 -120 -23 -127 -23 -6 -1 -17 23 -24 52 -12 49 -13
50 -19 22 -4 -16 -5 -41 -3 -55 4 -20 0 -25 -19 -26 -13 -1 -50 -5 -84 -9 -56
-7 -62 -6 -77 15 l-15 22 -4 -23 c-2 -19 -14 -26 -68 -40 -36 -10 -94 -18
-130 -18 -77 -1 -110 16 -110 57 0 63 63 106 182 127 122 22 118 23 119 -32 0
-36 3 -43 9 -28 5 11 9 34 9 52 1 28 5 33 49 47 76 25 132 31 132 15 0 -12 2
-12 9 0 8 12 58 21 226 40 6 0 23 -29 38 -65z m566 -25 c40 -24 31 -42 -20
-37 -29 2 -34 7 -37 31 -4 33 10 35 57 6z m-85 -33 c13 -20 25 -26 68 -28 l53
-3 -35 -23 c-32 -20 -86 -39 -163 -58 -23 -5 -26 -4 -21 12 4 11 14 27 22 37
12 13 17 15 24 5 4 -8 8 3 8 28 0 60 17 71 44 30z m886 -48 c0 -69 -12 -143
-24 -155 -9 -10 -210 -12 -234 -2 -22 8 -22 10 -8 31 16 22 23 103 9 95 -5 -3
-8 12 -8 34 0 25 5 39 13 39 6 0 12 3 12 8 0 4 29 6 65 5 36 -2 82 1 103 6 73
18 72 19 72 -61z m-1180 0 c0 -6 -6 -5 -15 2 -8 7 -15 14 -15 16 0 2 7 1 15
-2 8 -4 15 -11 15 -16z m8 -19 c27 -10 28 -25 2 -66 -24 -40 -57 -43 -95 -10
l-26 22 27 38 c28 39 30 39 92 16z m427 -33 c0 -30 -22 -30 -27 -1 -4 20 -2
25 11 23 9 -2 16 -12 16 -22z m-65 -5 c0 -22 31 -40 60 -34 59 11 24 -41 -56
-84 -28 -16 -74 -49 -102 -74 -42 -38 -49 -49 -38 -58 11 -9 20 -3 46 29 41
52 54 52 46 -2 -9 -55 -15 -61 -66 -60 -76 1 -186 50 -117 53 18 1 16 2 -8 10
-17 4 -44 22 -60 39 l-29 30 30 31 c52 56 294 154 294 120z m-399 -126 c26 -8
36 -14 24 -15 -11 -1 -27 -3 -35 -4 -39 -4 -100 43 -100 77 0 19 3 18 34 -12
18 -18 53 -38 77 -46z"/>
<path d="M1552 1100 c0 -19 2 -27 5 -17 2 9 2 25 0 35 -3 9 -5 1 -5 -18z"/>
<path d="M1630 871 c0 -10 31 -31 45 -31 11 0 -5 20 -26 30 -12 7 -19 7 -19 1z"/>
<path d="M1850 624 c1 -5 7 -20 15 -34 13 -24 14 -24 15 -4 0 12 -7 27 -15 34
-8 7 -15 9 -15 4z"/>
</g>
</svg>
