<?xml version="1.0" standalone="no"?>
<!DOCTYPE svg PUBLIC "-//W3C//DTD SVG 20010904//EN"
 "http://www.w3.org/TR/2001/REC-SVG-20010904/DTD/svg10.dtd">
<svg version="1.0" xmlns="http://www.w3.org/2000/svg"
 width="400.000000pt" height="600.000000pt" viewBox="0 0 400.000000 600.000000"
 preserveAspectRatio="xMidYMid meet">
<g transform="translate(0.000000,600.000000) scale(0.100000,-0.100000)"
fill="#000000" stroke="none">
<path d="M1150 4090 c-30 -5 -120 -9 -200 -9 -157 -2 -246 -11 -361 -37 -60
-14 -81 -24 -112 -54 -29 -30 -37 -45 -37 -74 0 -63 22 -92 100 -128 40 -19
67 -22 250 -25 127 -3 258 -11 345 -24 77 -10 157 -19 178 -19 23 0 36 -4 32
-10 -3 -5 -17 -10 -31 -10 -49 0 -131 -57 -159 -110 -35 -68 -25 -177 22 -238
22 -29 72 -60 125 -76 16 -5 15 -9 -7 -48 -29 -50 -32 -101 -8 -160 36 -95 94
-141 192 -154 37 -5 49 -10 42 -18 -6 -7 -13 -31 -17 -54 -13 -84 59 -179 161
-212 22 -7 49 -19 61 -26 11 -8 43 -17 70 -20 27 -3 66 -17 87 -31 22 -13 60
-28 85 -33 26 -4 92 -26 146 -49 55 -23 119 -46 143 -51 72 -17 253 -39 349
-44 50 -3 102 -10 117 -15 57 -22 153 -130 231 -259 21 -35 65 -100 99 -145
33 -45 76 -108 94 -139 19 -32 36 -58 39 -58 6 0 -24 71 -38 87 -6 7 -8 16 -6
19 3 3 23 -18 44 -47 21 -29 40 -47 42 -41 2 6 -31 57 -73 114 -42 57 -110
155 -152 218 -41 63 -85 125 -96 137 -11 13 -18 25 -16 27 9 9 26 -10 62 -67
20 -31 39 -57 42 -57 3 0 -11 25 -30 55 -40 62 -41 65 -17 65 19 0 140 -169
146 -203 1 -11 9 -23 15 -25 24 -8 1 40 -65 137 -35 51 -64 94 -64 96 0 1 10
6 23 10 12 4 24 9 27 10 3 1 15 6 28 10 29 10 28 20 -3 20 -14 0 -25 -3 -25
-6 0 -9 -59 -33 -84 -35 -46 -3 -44 10 3 26 48 16 96 48 87 57 -2 3 -23 -7
-45 -21 -23 -15 -41 -24 -41 -21 0 2 -12 0 -26 -5 -14 -6 -23 -6 -20 -1 4 5
-12 12 -34 16 -50 9 -51 21 -2 29 23 3 55 20 80 42 56 48 54 63 -3 19 -53 -40
-135 -68 -135 -47 0 5 18 14 39 21 47 13 146 107 179 169 30 55 21 55 -11 0
-14 -24 -37 -54 -52 -68 -22 -20 -18 -10 20 55 26 44 60 99 76 123 16 24 29
51 29 60 0 18 -1 18 -43 -57 -37 -66 -136 -207 -160 -230 -14 -13 -32 -21 -39
-19 -7 3 -18 -2 -25 -11 -8 -10 -12 -11 -13 -4 0 13 17 26 39 30 8 1 24 12 35
24 21 23 21 23 0 6 -33 -27 -37 -20 -10 16 13 17 34 53 45 80 11 26 32 59 46
73 15 14 24 28 21 31 -2 3 -13 -4 -22 -16 -13 -15 -20 -17 -26 -8 -6 9 -8 8
-8 -3 0 -27 -68 -153 -103 -193 -21 -25 -46 -41 -68 -46 -34 -7 -34 -7 -11
-20 19 -10 26 -10 40 1 12 10 14 10 8 0 -5 -8 3 -27 20 -50 l28 -37 -40 35
c-21 20 -54 42 -72 49 -39 16 -41 26 -4 29 29 2 128 95 118 111 -4 5 2 29 12
53 23 52 33 110 23 127 -5 8 -11 -8 -15 -38 -13 -97 -84 -215 -131 -216 -5 0
-16 -4 -22 -8 -12 -8 -28 -12 -83 -24 -22 -5 -21 -2 15 30 30 27 35 36 22 37
-10 0 -16 -4 -13 -8 6 -10 -72 -62 -94 -62 -10 1 -6 8 13 23 28 24 34 37 16
37 -5 0 -7 -4 -4 -10 3 -5 0 -10 -8 -10 -8 0 -20 -7 -27 -15 -7 -8 -19 -15
-28 -15 -13 0 -13 2 1 18 24 27 38 70 25 78 -7 4 -8 3 -4 -4 6 -11 -13 -17
-37 -13 -5 1 -6 -3 -2 -8 3 -6 12 -8 20 -4 24 9 17 -11 -15 -42 -31 -30 -38
-28 -20 6 8 14 6 25 -6 43 -8 14 -16 29 -16 33 -3 23 -11 43 -19 43 -14 0 -11
-12 16 -58 20 -36 22 -46 12 -63 -16 -26 -28 -23 -55 12 -26 33 -26 62 0 36 8
-9 19 -13 23 -9 5 4 5 -1 2 -10 -4 -10 -2 -18 3 -18 21 0 8 36 -16 47 -47 22
-57 0 -23 -48 l21 -30 -28 5 c-16 2 -29 5 -29 6 0 1 -16 3 -35 5 -19 2 -42 5
-50 6 -21 2 -39 18 -71 63 -24 32 -28 45 -23 85 l4 46 -15 -45 c-15 -45 -15
-45 16 -89 31 -44 33 -67 4 -37 -9 9 -20 16 -24 16 -4 0 -16 15 -26 34 -14 26
-17 47 -13 99 6 66 6 67 70 129 55 53 66 70 72 107 6 36 2 54 -20 98 -18 37
-23 58 -16 66 5 7 12 21 14 32 5 26 45 -59 60 -129 6 -27 16 -63 24 -80 12
-28 13 -28 14 -8 0 13 -4 32 -10 42 -5 10 -12 34 -14 54 -2 19 -7 40 -11 46
-3 5 -1 10 6 10 9 0 8 4 -2 13 -20 16 -44 56 -51 85 -8 29 -1 28 24 -4 11 -14
23 -23 26 -20 2 3 0 11 -6 19 -19 22 -82 156 -82 172 0 9 -5 13 -10 10 -15 -9
-40 14 -40 36 0 26 16 24 23 -3 4 -12 9 -19 13 -15 10 10 34 -13 34 -33 0 -10
7 -24 17 -31 15 -13 123 -174 123 -184 0 -3 -7 -5 -15 -5 -8 0 -15 5 -15 10 0
6 -7 10 -17 10 -10 0 -1 -11 23 -28 51 -38 56 -44 94 -132 18 -41 36 -79 42
-85 11 -12 -14 61 -36 103 -9 17 -16 33 -16 35 0 3 28 -23 63 -56 34 -34 61
-65 59 -70 -1 -5 2 -6 8 -2 5 3 10 1 10 -5 0 -6 4 -9 8 -6 5 3 -31 46 -80 96
-48 50 -99 112 -113 138 -13 26 -34 63 -47 82 -16 26 0 14 62 -44 47 -44 85
-87 85 -97 0 -10 9 -26 20 -36 19 -18 19 -18 2 3 -16 19 -16 22 -2 27 8 4 22
4 30 1 31 -12 14 6 -23 25 -22 11 -83 66 -136 122 -99 104 -159 190 -149 216
3 7 0 27 -7 44 -19 45 -4 47 35 3 34 -39 47 -72 23 -58 -19 10 32 -35 195
-173 80 -68 151 -123 159 -123 8 0 18 -4 24 -9 22 -21 162 -53 253 -57 65 -3
89 -1 76 5 -19 9 -18 10 5 11 14 0 49 9 78 19 28 10 52 17 52 15 0 -9 -97 -58
-138 -69 -32 -9 -39 -14 -22 -14 91 -4 228 105 268 212 12 32 22 71 22 87 0
17 5 30 11 30 8 0 10 -22 7 -72 -6 -87 -40 -164 -89 -205 -18 -16 -45 -38 -59
-51 l-25 -23 25 11 c17 8 11 -2 -22 -34 -49 -46 -56 -60 -36 -72 6 -4 8 -3 5
3 -3 5 32 49 79 97 106 110 147 189 146 281 -1 29 0 29 14 10 8 -11 27 -33 42
-50 16 -16 46 -52 68 -80 81 -103 148 -180 163 -189 9 -6 7 1 -6 15 -71 80
-133 160 -133 172 0 3 39 -37 88 -88 87 -92 122 -122 103 -87 -15 27 -131 160
-220 252 -95 97 -127 146 -148 227 -25 95 -58 140 -252 335 -102 102 -217 218
-255 257 -72 74 -131 110 -194 118 -20 2 -125 -3 -232 -12 -298 -25 -619 -30
-802 -11 -198 19 -339 25 -408 16z m440 -45 c79 -11 156 -15 210 -12 l86 5
-96 -98 c-87 -90 -159 -150 -181 -150 -22 0 -5 35 37 80 26 28 42 50 36 50
-20 0 -89 -76 -101 -112 -7 -20 -19 -42 -28 -50 -15 -11 -16 -11 -9 7 13 33
18 64 6 35 -9 -19 -13 -22 -20 -10 -5 8 -6 18 -3 23 3 5 -4 4 -16 -2 -11 -7
-21 -14 -21 -17 0 -3 5 -2 11 2 10 6 28 -11 29 -27 0 -18 -61 -23 -206 -18
l-41 1 16 32 c18 35 22 157 6 163 -6 2 -9 -16 -7 -47 2 -28 -3 -70 -13 -100
-18 -53 -39 -69 -30 -22 4 18 3 21 -3 9 -4 -10 -12 -19 -17 -20 -11 -2 -11 -1
-14 103 -1 60 -4 71 -13 56 -12 -22 -15 -110 -3 -145 7 -22 5 -23 -21 -16 -16
4 -39 7 -51 7 -17 -1 -23 4 -23 18 0 13 -6 20 -17 19 -11 0 -13 -3 -5 -6 6 -2
12 -9 12 -15 0 -7 -20 -8 -57 -4 -32 4 -79 7 -104 6 l-45 -1 4 116 c3 83 1
115 -7 115 -8 0 -10 -15 -5 -49 3 -28 3 -72 -2 -98 l-8 -48 -7 50 c-6 48 -6
47 -4 -12 2 -51 0 -63 -14 -67 -30 -7 -259 4 -268 14 -2 1 -7 4 -13 5 -5 1
-12 4 -15 5 -3 1 -11 3 -17 4 -7 1 -12 12 -11 26 2 22 1 23 -8 7 -10 -17 -12
-17 -30 4 -38 44 -14 115 48 142 61 27 206 47 347 48 72 1 163 5 201 9 105 12
364 4 505 -15z m1042 10 c29 -10 71 -40 117 -82 75 -71 87 -89 45 -73 -14 6
-37 9 -52 9 -20 -1 -22 -2 -7 -5 64 -14 106 -28 116 -40 9 -12 6 -13 -18 -8
-19 4 -33 1 -41 -9 -11 -13 -6 -14 34 -9 l46 5 129 -130 c71 -72 129 -138 129
-148 0 -28 -63 -80 -132 -108 -74 -31 -63 -36 14 -7 61 23 128 74 128 98 0 20
38 -20 77 -82 30 -47 26 -97 -13 -164 -44 -75 -195 -167 -285 -174 -17 -1 -33
-6 -35 -10 -6 -9 99 2 106 11 3 4 24 13 47 20 23 8 70 37 105 64 35 28 56 43
48 32 -32 -40 -87 -86 -127 -106 -51 -25 -55 -31 -12 -19 39 11 63 27 110 72
43 41 65 79 74 133 11 61 17 63 30 11 10 -39 9 -57 -5 -109 -17 -65 -47 -127
-77 -163 -33 -40 -211 -81 -283 -65 -25 5 -80 16 -122 25 -88 18 -132 35 -168
66 -20 18 -21 21 -5 15 145 -53 170 -57 310 -59 129 -1 144 1 185 22 76 40
122 94 145 172 7 24 7 24 -9 5 -8 -11 -16 -28 -16 -37 0 -10 -4 -18 -8 -18 -4
0 -13 -13 -19 -30 -6 -16 -17 -30 -24 -30 -8 0 -6 7 6 20 10 11 16 22 13 25
-3 3 -17 -12 -31 -34 -15 -23 -36 -41 -49 -43 -13 -2 -22 -9 -20 -16 1 -8 -2
-11 -7 -8 -5 4 -35 -1 -67 -9 -32 -8 -70 -14 -84 -14 -20 1 -21 2 -5 6 39 9
116 35 113 39 -2 2 -31 -4 -63 -12 -71 -19 -157 -13 -266 17 -128 35 -148 50
-326 228 -40 40 -73 78 -73 84 0 6 37 -26 83 -70 87 -85 189 -159 205 -149 6
3 30 -2 54 -12 23 -11 61 -22 83 -27 40 -7 181 -8 220 0 11 2 23 4 28 4 4 1 7
5 7 10 0 5 -16 5 -37 0 -21 -5 -69 -9 -108 -9 -149 0 -299 60 -409 164 -30 28
-30 28 -3 12 15 -9 27 -13 27 -8 0 4 -13 15 -29 25 -30 18 -131 122 -158 164
-14 21 -14 26 -2 34 8 5 9 9 3 9 -5 0 -23 -13 -38 -29 -23 -24 -27 -35 -22
-58 16 -65 18 -86 9 -80 -8 5 -20 42 -23 72 0 2 -12 16 -25 29 -14 14 -25 30
-25 36 0 5 -9 10 -20 10 -11 0 -20 5 -20 11 0 6 -9 9 -20 6 -10 -3 -24 1 -30
8 -7 9 -21 10 -45 5 -19 -4 -36 -5 -39 -2 -4 3 -6 0 -6 -6 0 -7 -10 -12 -22
-12 -18 1 -14 5 17 20 22 11 36 20 30 20 -5 0 3 7 19 15 15 8 32 13 36 10 5
-3 11 -1 14 4 4 5 25 7 49 5 23 -3 48 -5 55 -4 6 0 22 0 35 0 57 0 84 1 108 4
15 2 26 -2 26 -10 0 -6 -6 -10 -14 -7 -22 8 -42 -16 -41 -49 1 -23 14 -44 51
-82 28 -28 50 -55 49 -59 -2 -5 2 -6 7 -3 8 5 73 -58 82 -80 5 -13 80 -70 102
-77 32 -11 17 9 -19 27 -20 9 -34 19 -32 21 3 3 29 -7 59 -21 30 -15 66 -27
81 -28 16 -1 28 -4 28 -8 0 -5 10 -8 23 -7 19 0 18 2 -8 13 -16 8 -48 19 -70
26 -22 7 -62 23 -89 36 -58 28 -60 28 -50 12 4 -8 3 -10 -2 -5 -5 5 -9 12 -9
15 0 4 -4 12 -8 19 -4 7 21 -1 55 -16 86 -39 198 -63 198 -42 0 4 -20 11 -44
14 -94 13 -246 80 -246 109 0 9 3 9 12 0 7 -7 17 -12 23 -12 5 0 2 5 -8 11
-29 17 -8 31 37 25 34 -5 37 -4 17 4 -14 6 -32 16 -40 23 -12 9 -13 9 -7 0 11
-19 -3 -16 -51 12 -23 14 -43 24 -43 21 0 -3 18 -16 41 -29 28 -17 37 -27 28
-32 -14 -9 -93 70 -85 84 3 5 -1 14 -9 21 -14 12 -21 40 -10 40 3 0 28 -11 56
-25 62 -32 114 -51 86 -32 -10 6 -26 18 -35 25 -16 11 -16 12 0 6 19 -6 84 12
93 26 3 5 -8 5 -25 0 -17 -5 -30 -5 -30 0 0 5 -17 7 -37 5 -21 -3 -30 -2 -20
1 9 3 17 9 17 14 0 5 9 12 21 15 11 4 18 9 15 12 -3 3 -1 14 5 25 10 19 10 19
-23 1 -18 -9 -40 -18 -48 -19 -8 -1 -27 -5 -42 -9 -43 -11 -33 1 30 36 72 41
122 77 122 90 0 6 -16 -2 -35 -17 -24 -18 -33 -22 -29 -10 3 9 10 16 14 16 5
0 6 10 2 22 l-5 22 -8 -22 c-5 -12 -13 -22 -19 -22 -5 0 -10 -6 -10 -13 0 -7
-8 -17 -18 -22 -10 -6 -40 -25 -67 -42 -50 -33 -75 -41 -75 -23 0 6 6 10 13
10 18 0 66 52 72 76 2 10 7 30 10 44 3 14 -6 3 -20 -25 -26 -49 -119 -134
-133 -120 -3 3 12 23 34 43 47 44 84 95 84 113 0 8 -12 -4 -26 -24 -14 -21
-28 -36 -31 -33 -3 3 -1 11 4 18 16 21 23 48 13 48 -6 0 -10 -6 -10 -12 0 -16
-60 -112 -65 -106 -2 2 7 28 21 57 14 29 24 54 22 56 -2 2 -19 -28 -38 -66
-33 -68 -70 -108 -70 -75 0 7 6 16 13 19 13 5 61 77 52 77 -2 0 -15 -16 -29
-36 l-24 -35 4 68 3 68 -14 -70 c-15 -71 -32 -95 -67 -95 -17 0 -18 2 -5 21
23 33 -2 113 -47 151 -32 26 -38 21 -11 -8 14 -15 25 -30 26 -33 0 -3 2 -17 4
-31 5 -35 -12 -84 -35 -105 -19 -18 -20 -17 -21 11 -2 28 -2 28 -10 -6 -7 -30
-8 -28 -4 16 2 27 1 55 -3 61 -4 6 -8 -16 -10 -50 -2 -58 -16 -92 -32 -82 -4
3 -11 -2 -14 -11 -4 -9 -9 -14 -13 -10 -4 3 -17 -4 -30 -16 -28 -26 -29 -19
-3 24 11 18 20 40 19 48 0 8 -9 -3 -18 -25 -19 -41 -67 -93 -76 -83 -3 3 -25
1 -47 -4 -23 -5 -54 -6 -69 -3 l-27 6 36 36 c36 35 21 28 -26 -12 -22 -18 -22
-20 -6 -32 16 -12 15 -13 -10 -13 -19 0 -25 4 -20 13 5 9 4 9 -5 1 -17 -15
-96 -1 -129 23 -35 25 -63 82 -55 111 5 20 7 21 22 9 54 -48 119 -54 190 -18
47 24 59 43 63 95 2 29 -3 42 -21 55 l-23 17 37 28 c44 34 96 86 111 112 6 10
28 32 48 49 33 26 46 30 97 30 32 0 59 4 59 8 0 5 4 6 9 3 4 -3 82 1 172 9
322 28 353 29 411 10z m-929 -293 c31 -35 0 -92 -67 -122 -35 -16 -44 -17 -83
-5 -49 15 -88 44 -76 56 17 17 169 88 189 88 11 1 28 -7 37 -17z m-253 -71 c0
-16 -23 -25 -57 -22 -19 1 -33 -2 -33 -8 0 -6 16 -11 36 -11 29 0 35 -3 30
-16 -7 -19 18 -81 47 -113 29 -31 94 -61 135 -61 29 0 32 -2 22 -19 -5 -11
-10 -30 -9 -43 0 -16 4 -11 12 17 10 33 18 40 45 46 28 6 32 4 26 -10 -4 -9
-10 -61 -13 -116 -6 -92 -8 -100 -26 -98 -32 3 -72 11 -185 33 -58 12 -114 23
-125 24 -11 2 -22 5 -25 6 -3 2 -9 4 -15 5 -38 7 -64 27 -70 53 -4 19 -12 29
-23 28 -13 -1 -18 12 -25 59 -11 75 3 125 44 159 35 30 24 36 -13 7 -35 -28
-52 -88 -45 -157 4 -36 2 -53 -4 -47 -14 14 -19 92 -9 136 9 42 48 90 92 113
61 32 188 55 188 35z m611 -64 c-10 -9 -11 -8 -5 6 3 10 9 15 12 12 3 -3 0
-11 -7 -18z m389 8 c0 -10 -45 -23 -55 -17 -5 4 4 10 20 13 17 4 31 7 33 8 1
0 2 -1 2 -4z m-132 -46 c-2 -3 2 -12 8 -20 16 -21 25 -49 15 -49 -5 0 -14 13
-21 30 -7 16 -16 27 -21 24 -5 -3 -6 2 -3 11 4 9 11 14 16 13 5 -2 8 -6 6 -9z
m-213 -72 c50 -28 78 -78 71 -130 -10 -85 -62 -117 -196 -123 -89 -3 -120 -7
-191 -23 -50 -11 -54 -10 -41 16 17 32 20 183 3 183 -5 0 -8 -30 -7 -67 1 -82
-10 -143 -27 -143 -13 0 -13 68 -1 186 5 50 6 52 42 58 20 3 52 9 71 12 20 4
32 3 28 -2 -7 -12 115 -8 168 6 22 5 46 10 53 10 15 0 61 -47 73 -75 7 -18 8
-18 8 -1 1 10 -15 34 -34 53 -32 32 -39 35 -78 29 -23 -3 -73 -8 -112 -11
l-70 -5 60 24 c78 31 129 32 180 3z m145 -12 c9 6 45 -28 61 -57 17 -32 -8
-19 -32 16 -25 37 -44 38 -33 3 6 -21 6 -22 -12 -3 -13 12 -15 20 -7 23 7 2
11 10 9 16 -1 7 -1 9 1 4 3 -4 9 -5 13 -2z m-1015 -146 c11 -17 -1 -21 -15 -4
-8 9 -8 15 -2 15 6 0 14 -5 17 -11z m991 -6 c20 -27 16 -38 -6 -18 -20 18 -26
35 -14 35 4 0 13 -8 20 -17z m-15 -111 c27 -24 33 -37 37 -87 3 -39 1 -56 -6
-51 -6 3 -13 2 -17 -4 -3 -5 -1 -10 6 -10 8 0 10 -3 3 -10 -5 -5 -35 -12 -67
-16 l-57 -7 -15 36 c-31 74 -15 129 41 143 16 4 23 12 20 20 -9 24 22 16 55
-14z m-759 -2 c29 -5 87 -17 128 -25 85 -17 193 -20 236 -5 38 12 82 19 181
30 45 4 91 11 102 15 12 3 21 2 21 -4 0 -5 -16 -13 -35 -17 -19 -3 -35 -10
-35 -15 0 -5 3 -9 8 -9 4 0 8 -30 8 -65 2 -97 32 -122 113 -94 18 6 34 9 37 6
13 -13 -54 -41 -139 -58 -50 -10 -109 -25 -129 -34 -21 -8 -38 -11 -38 -7 0 5
30 18 68 30 l67 21 -48 -4 c-27 -2 -55 -9 -62 -15 -11 -9 -13 -7 -9 12 l5 23
-10 -22 c-6 -13 -17 -23 -26 -23 -12 0 -15 15 -16 78 0 42 -5 86 -10 97 -6 13
-8 -11 -5 -74 3 -76 7 -97 21 -107 17 -12 16 -14 -11 -24 -28 -11 -287 -9
-394 2 -46 5 -103 29 -115 48 -8 13 25 1 46 -17 9 -7 19 -10 22 -7 4 4 15 1
24 -7 16 -13 17 -12 4 4 -8 10 -20 16 -28 13 -16 -7 -41 30 -58 86 -13 40 -14
41 -14 13 -1 -17 4 -36 11 -43 6 -6 9 -15 5 -19 -21 -20 -51 90 -41 150 4 24
3 28 -5 17 -13 -19 -14 -75 -2 -118 6 -18 6 -30 1 -27 -13 8 -33 113 -26 139
8 34 56 77 77 71 9 -3 41 -10 71 -15z m787 -279 c41 -57 21 -111 -46 -126 -31
-6 -32 -6 -49 50 -18 56 -18 57 1 71 10 8 30 14 44 15 24 0 24 1 6 9 -19 8
-19 9 2 9 13 1 30 -10 42 -28z m-109 6 c-23 -18 -23 -49 0 -108 22 -59 24 -56
-36 -97 -16 -10 -15 -11 6 -1 14 6 34 19 45 29 24 20 83 45 91 37 8 -8 -54
-49 -146 -93 -82 -40 -114 -49 -74 -20 15 12 19 27 19 78 -1 35 -6 72 -13 83
-12 18 -12 17 -5 -10 4 -16 8 -51 8 -77 0 -39 -4 -51 -24 -65 -14 -9 -32 -24
-42 -34 -12 -12 -34 -17 -75 -18 -31 0 -60 -5 -63 -10 -4 -5 -13 -9 -21 -8 -8
1 -32 -3 -53 -7 -28 -6 -42 -5 -55 6 -9 9 -28 18 -42 21 -27 7 -53 52 -70 122
l-10 40 5 -40 c2 -22 7 -51 11 -65 6 -22 3 -21 -20 9 -33 44 -42 91 -24 128
l13 28 160 7 c137 6 178 12 285 41 143 39 150 41 130 24z m-32 -271 c-7 -8
-14 -13 -16 -11 -6 6 -42 -34 -42 -46 0 -8 -5 -7 -15 1 -13 11 -14 10 -9 -4 4
-10 0 -18 -10 -22 -9 -3 -13 -10 -10 -15 3 -5 0 -9 -6 -9 -7 0 -9 -7 -6 -17 4
-10 4 -14 0 -10 -4 4 -13 2 -20 -4 -10 -8 -20 -5 -41 12 -15 12 -20 19 -11 16
19 -7 45 18 28 28 -5 3 -10 1 -10 -4 0 -6 -5 -11 -12 -11 -6 0 -8 3 -5 7 4 3
0 14 -8 23 -13 14 -12 16 13 17 59 1 80 7 75 20 -3 8 -2 13 3 12 24 -4 55 2
49 10 -3 5 7 12 22 14 16 2 32 5 36 6 4 0 2 -5 -5 -13z m36 -13 c-19 -43 -16
-113 5 -149 12 -20 20 -38 18 -40 -7 -7 -44 41 -56 71 -11 30 -11 30 -6 -7 4
-23 2 -38 -5 -38 -5 0 -10 8 -10 18 0 13 -2 14 -9 4 -6 -10 -10 -10 -20 2 -18
22 1 79 40 121 36 38 56 46 43 18z m-241 -57 c15 -12 15 -15 2 -26 -12 -10
-18 -10 -30 0 -8 6 -19 9 -26 5 -8 -6 -8 -2 0 14 13 24 28 26 54 7z m-68 -6
c-3 -5 -15 -10 -26 -10 -11 0 -17 5 -14 10 3 6 15 10 26 10 11 0 17 -4 14 -10z
m205 -40 c0 -21 -4 -28 -14 -24 -11 4 -11 10 -2 30 14 31 16 30 16 -6z m833
-277 c-5 -12 -3 -14 7 -8 8 5 11 4 6 -3 -4 -6 -13 -9 -22 -5 -11 4 -12 9 -3
19 15 19 20 18 12 -3z"/>
<path d="M1250 4024 c0 -8 5 -12 10 -9 6 3 10 10 10 16 0 5 -4 9 -10 9 -5 0
-10 -7 -10 -16z"/>
<path d="M1285 3999 c-6 -19 0 -38 9 -28 10 12 16 49 7 49 -5 0 -13 -9 -16
-21z"/>
<path d="M1237 3993 c-11 -10 -8 -61 3 -68 6 -4 10 10 10 34 0 42 -2 46 -13
34z"/>
<path d="M1120 3980 c0 -5 5 -10 10 -10 6 0 10 5 10 10 0 6 -4 10 -10 10 -5 0
-10 -4 -10 -10z"/>
<path d="M836 3958 c-8 -32 -7 -121 2 -134 4 -7 7 26 8 72 0 46 0 84 -1 84 -2
0 -5 -10 -9 -22z"/>
<path d="M800 3900 c0 -27 3 -50 8 -50 4 0 7 23 7 50 0 28 -3 50 -7 50 -5 0
-8 -22 -8 -50z"/>
<path d="M1121 3934 c0 -11 3 -14 6 -6 3 7 2 16 -1 19 -3 4 -6 -2 -5 -13z"/>
<path d="M482 3900 c0 -14 2 -19 5 -12 2 6 2 18 0 25 -3 6 -5 1 -5 -13z"/>
<path d="M581 3884 c0 -11 3 -14 6 -6 3 7 2 16 -1 19 -3 4 -6 -2 -5 -13z"/>
<path d="M1240 3855 c0 -19 2 -35 4 -35 2 0 6 16 8 35 2 19 0 35 -4 35 -4 0
-8 -16 -8 -35z"/>
<path d="M1561 3864 c0 -11 3 -14 6 -6 3 7 2 16 -1 19 -3 4 -6 -2 -5 -13z"/>
<path d="M1505 3860 c3 -5 8 -10 11 -10 2 0 4 5 4 10 0 6 -5 10 -11 10 -5 0
-7 -4 -4 -10z"/>
<path d="M780 3846 c0 -8 -6 -17 -12 -19 -7 -3 -3 -6 9 -6 16 -1 20 3 16 19
-6 23 -13 26 -13 6z"/>
<path d="M1121 3844 c0 -11 3 -14 6 -6 3 7 2 16 -1 19 -3 4 -6 -2 -5 -13z"/>
<path d="M1637 3843 c-4 -3 -7 -13 -7 -22 1 -13 3 -13 11 2 11 19 8 33 -4 20z"/>
<path d="M710 3831 c0 -9 30 -24 36 -18 2 1 -6 8 -16 15 -11 7 -20 8 -20 3z"/>
<path d="M1078 3833 c6 -2 18 -2 25 0 6 3 1 5 -13 5 -14 0 -19 -2 -12 -5z"/>
<path d="M637 3819 c7 -7 15 -10 18 -7 3 3 -2 9 -12 12 -14 6 -15 5 -6 -5z"/>
<path d="M948 3813 c7 -3 16 -2 19 1 4 3 -2 6 -13 5 -11 0 -14 -3 -6 -6z"/>
<path d="M1131 3804 c0 -11 3 -14 6 -6 3 7 2 16 -1 19 -3 4 -6 -2 -5 -13z"/>
<path d="M1340 3769 c0 -5 5 -7 10 -4 6 3 10 8 10 11 0 2 -4 4 -10 4 -5 0 -10
-5 -10 -11z"/>
<path d="M1475 3770 c-3 -5 -1 -10 4 -10 6 0 11 5 11 10 0 6 -2 10 -4 10 -3 0
-8 -4 -11 -10z"/>
<path d="M2001 3996 c12 -14 25 -26 27 -26 9 0 -25 44 -37 48 -7 2 -3 -7 10
-22z"/>
<path d="M2053 3998 c1 -15 6 -23 11 -18 4 4 4 16 -2 26 -9 16 -10 14 -9 -8z"/>
<path d="M2099 3972 c5 -34 6 -35 9 -8 2 16 0 32 -5 37 -5 5 -7 -7 -4 -29z"/>
<path d="M1937 3984 c12 -11 31 -37 42 -59 12 -22 21 -33 21 -25 0 27 -45 95
-65 99 -19 3 -19 2 2 -15z"/>
<path d="M1855 3950 c3 -5 11 -10 16 -10 6 0 7 5 4 10 -3 6 -11 10 -16 10 -6
0 -7 -4 -4 -10z"/>
<path d="M1890 3921 c0 -6 4 -13 10 -16 6 -3 7 1 4 9 -7 18 -14 21 -14 7z"/>
<path d="M1848 3913 c7 -3 16 -2 19 1 4 3 -2 6 -13 5 -11 0 -14 -3 -6 -6z"/>
<path d="M1845 3885 c11 -8 26 -19 33 -26 7 -6 16 -9 18 -6 8 8 -38 47 -55 47
-13 -1 -12 -4 4 -15z"/>
<path d="M1809 3883 c0 -5 -2 -16 -4 -26 -2 -9 1 -14 6 -11 6 3 16 0 24 -6 8
-7 20 -10 27 -7 7 3 -1 10 -19 17 -21 8 -30 16 -26 26 3 8 2 14 -1 14 -3 0 -6
-3 -7 -7z"/>
<path d="M2738 3873 c7 -3 16 -2 19 1 4 3 -2 6 -13 5 -11 0 -14 -3 -6 -6z"/>
<path d="M2080 3846 c0 -2 7 -9 15 -16 9 -7 15 -8 15 -2 0 5 -7 12 -15 16 -8
3 -15 4 -15 2z"/>
<path d="M2515 3832 c2 -2 -3 -18 -11 -34 -9 -17 -13 -32 -10 -35 2 -3 14 13
25 34 16 32 17 40 5 40 -8 0 -12 -2 -9 -5z"/>
<path d="M2572 3803 c-11 -21 -29 -47 -41 -57 -12 -11 -21 -24 -21 -29 0 -6
12 0 26 14 28 26 69 98 60 106 -2 3 -13 -12 -24 -34z"/>
<path d="M2132 3815 c0 -11 4 -33 8 -50 l8 -30 0 30 c0 17 -3 39 -8 50 l-9 20
1 -20z"/>
<path d="M2221 3774 c0 -11 3 -14 6 -6 3 7 2 16 -1 19 -3 4 -6 -2 -5 -13z"/>
<path d="M1953 3765 c-3 -9 -3 -19 1 -22 3 -4 6 -1 6 5 0 7 9 12 20 12 11 0
20 5 20 10 0 16 -40 11 -47 -5z"/>
<path d="M2391 3753 c-15 -34 -10 -37 12 -8 9 13 13 26 8 29 -4 3 -13 -6 -20
-21z"/>
<path d="M2844 3768 c12 -7 25 -7 40 0 18 8 15 10 -18 10 -32 0 -36 -2 -22
-10z"/>
<path d="M2651 3722 c-20 -21 -57 -48 -81 -60 -55 -27 -85 -50 -78 -58 13 -12
125 56 157 96 18 23 39 39 45 37 7 -3 13 1 13 9 0 24 -18 16 -56 -24z"/>
<path d="M2595 3739 c-4 -6 -5 -12 -2 -15 2 -3 7 2 10 11 7 17 1 20 -8 4z"/>
<path d="M1938 3675 c-3 -28 -9 -59 -12 -70 -5 -14 -3 -12 7 4 14 23 15 24 20
5 2 -10 5 1 5 26 1 71 -14 96 -20 35z"/>
<path d="M2022 3690 c0 -19 2 -27 5 -17 2 9 2 25 0 35 -3 9 -5 1 -5 -18z"/>
<path d="M2136 3705 c-9 -26 -7 -32 5 -12 6 10 9 21 6 23 -2 3 -7 -2 -11 -11z"/>
<path d="M2680 3690 c-19 -16 -29 -29 -22 -30 6 0 12 5 12 10 0 6 7 10 15 10
8 0 15 5 15 11 0 5 5 7 10 4 6 -3 10 1 10 9 0 21 0 21 -40 -14z"/>
<path d="M2970 3701 c0 -6 4 -13 10 -16 6 -3 7 1 4 9 -7 18 -14 21 -14 7z"/>
<path d="M2514 3654 c-18 -14 -18 -15 4 -4 12 6 22 13 22 15 0 8 -5 6 -26 -11z"/>
<path d="M2655 3618 c-22 -11 -69 -31 -105 -44 -51 -18 -58 -23 -35 -23 30 -1
224 87 195 88 -8 0 -33 -9 -55 -21z"/>
<path d="M3036 3627 c3 -10 9 -15 12 -12 3 3 0 11 -7 18 -10 9 -11 8 -5 -6z"/>
<path d="M1851 3598 c-6 -17 -19 -40 -28 -50 -9 -10 -12 -18 -7 -18 13 1 42
43 50 74 9 37 -2 33 -15 -6z"/>
<path d="M3048 3593 c-21 -9 -38 -20 -38 -24 0 -5 2 -9 4 -9 8 0 76 42 76 46
0 2 -1 4 -2 3 -2 -1 -20 -8 -40 -16z"/>
<path d="M1820 3580 c-6 -11 -8 -20 -6 -20 3 0 10 9 16 20 6 11 8 20 6 20 -3
0 -10 -9 -16 -20z"/>
<path d="M1539 3568 c-7 -23 -4 -38 7 -42 11 -4 12 -1 5 13 -6 10 -7 21 -4 25
3 3 3 6 0 6 -4 0 -7 -1 -8 -2z"/>
<path d="M1751 3548 c-13 -4 -21 -11 -18 -14 3 -3 14 -1 25 5 15 8 21 8 24 -1
3 -8 6 -9 11 -1 10 16 -14 22 -42 11z"/>
<path d="M2976 3544 c-5 -14 -4 -15 9 -4 17 14 19 20 6 20 -5 0 -12 -7 -15
-16z"/>
<path d="M1601 3536 c-10 -12 -8 -14 14 -12 14 2 29 7 33 11 4 4 -4 4 -17 0
-16 -5 -21 -4 -17 4 10 16 1 14 -13 -3z"/>
<path d="M2720 3520 c-14 -4 -44 -8 -67 -9 -24 -1 -43 -5 -43 -10 0 -5 -10
-12 -22 -14 -18 -3 -17 -4 2 -2 46 5 145 27 160 36 18 10 4 10 -30 -1z"/>
<path d="M2993 3515 c0 -8 4 -12 9 -9 5 3 6 10 3 15 -9 13 -12 11 -12 -6z"/>
<path d="M3137 3463 l-18 -38 20 25 c18 22 28 50 18 50 -2 0 -11 -17 -20 -37z"/>
<path d="M3155 3447 c-31 -42 -147 -113 -166 -102 -5 4 -9 1 -9 -5 0 -6 -3 -9
-7 -7 -5 3 -17 1 -28 -4 -19 -7 -18 -8 3 -8 69 -2 221 89 238 142 10 31 1 26
-31 -16z"/>
<path d="M2690 3465 c-39 -9 -46 -13 -25 -13 17 0 48 5 70 13 51 16 27 17 -45
0z"/>
<path d="M2480 3430 c8 -5 22 -9 30 -9 10 0 8 3 -5 9 -27 12 -43 12 -25 0z"/>
<path d="M2853 3429 c-17 -5 -78 -13 -135 -18 -98 -8 -100 -8 -32 -10 76 -1
183 15 199 30 10 10 11 10 -32 -2z"/>
<path d="M3192 3398 c-13 -20 -43 -48 -68 -63 -55 -33 -52 -45 4 -16 44 22 96
83 90 102 -2 7 -14 -4 -26 -23z"/>
<path d="M2548 3413 c12 -2 30 -2 40 0 9 3 -1 5 -23 4 -22 0 -30 -2 -17 -4z"/>
<path d="M2510 3390 c18 -12 30 -13 30 -2 0 4 -10 9 -22 9 -18 2 -20 0 -8 -7z"/>
<path d="M2550 3378 c0 -11 62 -10 79 1 8 5 -3 8 -33 7 -25 0 -46 -4 -46 -8z"/>
<path d="M2710 3376 c0 -8 4 -17 9 -20 5 -4 7 3 4 14 -6 23 -13 26 -13 6z"/>
<path d="M2744 3292 c4 -7 18 -12 32 -12 14 0 22 -4 19 -10 -4 -6 6 -10 22
-10 27 1 27 1 9 15 -11 8 -28 15 -37 15 -10 0 -25 3 -35 7 -12 4 -15 3 -10 -5z"/>
<path d="M3125 3290 c-12 -4 -27 -15 -34 -24 -19 -22 -115 -56 -164 -57 -23 0
-51 -4 -62 -9 -13 -5 8 -7 56 -5 87 3 146 25 199 73 36 34 37 36 5 22z"/>
<path d="M2892 3246 c-43 -6 -70 -15 -65 -20 4 -5 -15 -6 -46 -3 -48 6 -52 5
-35 -8 21 -16 70 -20 78 -6 3 5 33 12 65 16 33 4 68 13 78 21 20 15 23 15 -75
0z"/>
<path d="M2605 3230 c3 -5 14 -10 23 -10 15 0 15 2 2 10 -20 13 -33 13 -25 0z"/>
<path d="M2668 3213 c7 -3 16 -2 19 1 4 3 -2 6 -13 5 -11 0 -14 -3 -6 -6z"/>
<path d="M2560 3185 c0 -23 210 -86 277 -84 33 2 34 3 8 6 -81 10 -174 36
-168 46 3 5 2 7 -4 4 -5 -3 -33 3 -61 13 -29 11 -52 18 -52 15z"/>
<path d="M2823 3123 c9 -2 23 -2 30 0 6 3 -1 5 -18 5 -16 0 -22 -2 -12 -5z"/>
<path d="M1210 3521 c0 -5 5 -13 10 -16 6 -3 10 -2 10 4 0 5 -4 13 -10 16 -5
3 -10 2 -10 -4z"/>
<path d="M1240 3479 c0 -5 5 -7 10 -4 6 3 10 8 10 11 0 2 -4 4 -10 4 -5 0 -10
-5 -10 -11z"/>
<path d="M1350 3454 c0 -8 5 -12 10 -9 6 4 8 11 5 16 -9 14 -15 11 -15 -7z"/>
<path d="M1420 3430 c0 -5 5 -10 11 -10 5 0 7 5 4 10 -3 6 -8 10 -11 10 -2 0
-4 -4 -4 -10z"/>
<path d="M1260 3366 c0 -8 4 -17 9 -20 5 -4 7 3 4 14 -6 23 -13 26 -13 6z"/>
<path d="M1320 3371 c0 -6 5 -13 10 -16 6 -3 10 1 10 9 0 9 -4 16 -10 16 -5 0
-10 -4 -10 -9z"/>
<path d="M1614 3356 c-3 -8 -4 -25 -2 -38 3 -17 5 -13 9 15 5 38 2 47 -7 23z"/>
<path d="M1290 3351 c0 -5 7 -14 15 -21 16 -14 18 -10 9 14 -6 17 -24 22 -24
7z"/>
<path d="M1355 3351 c-6 -11 13 -26 22 -17 4 3 1 6 -6 6 -7 0 -9 5 -6 10 3 6
4 10 1 10 -3 0 -7 -4 -11 -9z"/>
<path d="M1385 3310 c3 -5 8 -10 11 -10 2 0 4 5 4 10 0 6 -5 10 -11 10 -5 0
-7 -4 -4 -10z"/>
<path d="M1469 3295 c19 -8 36 -13 39 -10 8 8 0 12 -38 19 l-35 7 34 -16z"/>
<path d="M1882 3445 c-15 -19 -18 -35 -15 -69 3 -25 1 -58 -5 -75 -6 -17 -7
-31 -3 -31 12 0 25 68 22 111 -2 25 2 38 13 42 8 3 14 15 13 26 -2 26 -1 26
-25 -4z"/>
<path d="M1843 3439 c-2 -23 3 -25 10 -4 4 8 3 16 -1 19 -4 3 -9 -4 -9 -15z"/>
<path d="M1782 3425 c0 -16 2 -22 5 -12 2 9 2 23 0 30 -3 6 -5 -1 -5 -18z"/>
<path d="M2152 3370 c0 -14 2 -19 5 -12 2 6 2 18 0 25 -3 6 -5 1 -5 -13z"/>
<path d="M1791 3364 c0 -11 3 -14 6 -6 3 7 2 16 -1 19 -3 4 -6 -2 -5 -13z"/>
<path d="M1900 3364 c0 -11 7 -29 15 -40 19 -26 20 1 0 36 -13 23 -14 23 -15
4z"/>
<path d="M1830 3323 c0 -22 2 -25 10 -13 13 20 13 40 0 40 -5 0 -10 -12 -10
-27z"/>
<path d="M2130 3326 c-17 -16 -130 -29 -130 -15 0 5 -4 9 -10 9 -5 0 -7 -7 -3
-16 5 -13 1 -15 -23 -10 -16 3 -42 2 -59 -3 -25 -8 -18 -9 40 -10 100 0 163
13 188 38 23 23 20 30 -3 7z"/>
<path d="M1780 3305 c1 -26 2 -28 11 -12 8 14 8 22 0 30 -8 8 -11 3 -11 -18z"/>
<path d="M1812 3310 c0 -14 2 -19 5 -12 2 6 2 18 0 25 -3 6 -5 1 -5 -13z"/>
<path d="M1800 3268 c0 -4 9 -8 20 -8 11 0 20 4 20 9 0 6 -9 9 -20 8 -11 -1
-20 -5 -20 -9z"/>
<path d="M1770 3259 c0 -5 5 -7 10 -4 6 3 10 8 10 11 0 2 -4 4 -10 4 -5 0 -10
-5 -10 -11z"/>
<path d="M2190 3231 c0 -5 7 -12 16 -15 14 -5 15 -4 4 9 -14 17 -20 19 -20 6z"/>
<path d="M1373 3225 c-3 -9 -3 -18 -1 -21 3 -3 8 4 11 16 6 23 -1 27 -10 5z"/>
<path d="M2000 3210 c0 -5 5 -10 10 -10 6 0 10 5 10 10 0 6 -4 10 -10 10 -5 0
-10 -4 -10 -10z"/>
<path d="M1793 3136 c-10 -46 -6 -116 7 -116 5 0 9 25 9 55 0 30 2 63 6 74 3
11 2 22 -3 25 -5 3 -13 -14 -19 -38z"/>
<path d="M1360 3154 c0 -8 5 -12 10 -9 6 4 8 11 5 16 -9 14 -15 11 -15 -7z"/>
<path d="M1925 3140 c4 -19 8 -53 7 -75 0 -38 0 -39 8 -11 9 29 -1 101 -15
114 -4 4 -4 -9 0 -28z"/>
<path d="M1954 3081 c0 -46 2 -66 7 -51 l7 25 2 -25 c2 -16 6 -8 13 25 7 36 7
50 -2 53 -6 2 -11 12 -11 22 0 10 -3 21 -7 23 -5 3 -8 -30 -9 -72z"/>
<path d="M1391 3133 c0 -5 4 -17 9 -28 8 -18 9 -17 9 8 1 15 -3 27 -9 27 -5 0
-10 -3 -9 -7z"/>
<path d="M2020 3105 c-2 -35 -3 -37 -10 -15 -6 20 -8 21 -8 5 0 -11 3 -31 7
-44 6 -24 7 -23 17 10 6 19 7 45 3 59 -6 21 -7 19 -9 -15z"/>
<path d="M1434 3048 c2 -16 -1 -28 -7 -28 -6 0 -7 -3 -4 -6 4 -4 13 -1 21 5
11 10 15 9 19 -4 5 -14 5 -14 3 0 0 9 -5 16 -11 15 -5 -1 -13 9 -17 22 -7 20
-7 20 -4 -4z"/>
<path d="M1820 3027 c0 -15 4 -27 10 -27 5 0 9 9 7 20 -5 31 -17 36 -17 7z"/>
<path d="M1991 3034 c0 -11 3 -14 6 -6 3 7 2 16 -1 19 -3 4 -6 -2 -5 -13z"/>
<path d="M2080 3031 c0 -6 -8 -11 -17 -12 -10 0 -13 -3 -6 -5 18 -8 49 11 34
20 -6 4 -11 2 -11 -3z"/>
<path d="M1470 2986 c0 -2 8 -10 18 -17 15 -13 16 -12 3 4 -13 16 -21 21 -21
13z"/>
<path d="M1510 2975 c0 -1 8 -9 17 -16 9 -8 14 -9 10 -3 -5 8 7 10 41 6 26 -2
45 -2 42 1 -5 5 -110 17 -110 12z"/>
<path d="M1838 2953 c7 -3 16 -2 19 1 4 3 -2 6 -13 5 -11 0 -14 -3 -6 -6z"/>
<path d="M1986 2912 c-3 -5 1 -9 9 -9 8 0 12 4 9 9 -3 4 -7 8 -9 8 -2 0 -6 -4
-9 -8z"/>
<path d="M1949 2810 c8 -44 19 -80 24 -80 4 0 6 8 3 18 -3 9 -10 45 -17 80 -6
34 -15 62 -19 62 -4 0 0 -36 9 -80z"/>
<path d="M2077 2836 c4 -28 3 -37 -5 -32 -14 9 -15 -3 -3 -23 14 -22 26 53 12
76 -8 14 -9 9 -4 -21z"/>
<path d="M1553 2810 c0 -25 2 -35 4 -22 2 12 2 32 0 45 -2 12 -4 2 -4 -23z"/>
<path d="M2100 2819 c0 -5 5 -7 10 -4 6 3 10 8 10 11 0 2 -4 4 -10 4 -5 0 -10
-5 -10 -11z"/>
<path d="M1621 2774 c-2 -39 11 -83 26 -88 9 -4 11 -2 7 5 -4 6 -12 32 -19 58
-7 25 -14 36 -14 25z"/>
<path d="M2051 2764 c0 -11 3 -14 6 -6 3 7 2 16 -1 19 -3 4 -6 -2 -5 -13z"/>
<path d="M1682 2690 c16 -26 48 -34 83 -19 15 6 11 7 -15 5 -24 -2 -43 4 -60
18 l-24 21 16 -25z"/>
<path d="M1805 2690 c-13 -6 -15 -9 -5 -9 8 0 22 4 30 9 18 12 2 12 -25 0z"/>
<path d="M1858 2693 c6 -2 18 -2 25 0 6 3 1 5 -13 5 -14 0 -19 -2 -12 -5z"/>
<path d="M1961 2631 c-8 -5 -10 -14 -6 -21 5 -8 1 -18 -9 -26 -11 -8 -13 -14
-7 -19 14 -8 33 4 26 16 -4 5 -2 9 2 9 5 0 9 11 9 25 0 14 0 25 0 25 -1 0 -7
-4 -15 -9z"/>
<path d="M2071 2614 c0 -11 3 -14 6 -6 3 7 2 16 -1 19 -3 4 -6 -2 -5 -13z"/>
<path d="M3246 3587 c3 -10 9 -15 12 -12 3 3 0 11 -7 18 -10 9 -11 8 -5 -6z"/>
<path d="M3340 3185 c0 -5 5 -17 10 -25 5 -8 10 -10 10 -5 0 6 -5 17 -10 25
-5 8 -10 11 -10 5z"/>
<path d="M2419 3144 c12 -26 68 -74 83 -74 6 0 9 1 7 3 -2 1 -26 22 -53 47
-28 26 -44 36 -37 24z"/>
<path d="M3328 3140 c-4 -14 -8 -36 -8 -50 1 -22 2 -23 11 -7 6 9 9 32 7 50
-3 31 -3 31 -10 7z"/>
<path d="M3384 3115 c4 -16 12 -34 17 -39 5 -6 5 4 -1 24 -12 42 -25 55 -16
15z"/>
<path d="M2504 3101 c11 -11 23 -21 28 -21 14 0 -1 19 -25 31 -22 12 -22 12
-3 -10z"/>
<path d="M2532 3071 c-11 -6 -8 -10 10 -14 12 -3 51 -29 85 -56 34 -27 75 -57
91 -65 16 -8 42 -30 59 -49 26 -30 63 -54 63 -42 0 3 -18 21 -40 41 -22 20
-37 40 -34 45 3 5 -1 9 -9 9 -22 0 -138 80 -131 91 3 5 -1 9 -8 9 -7 0 -24 9
-38 20 -29 22 -30 23 -48 11z"/>
<path d="M3370 3066 c0 -2 7 -7 16 -10 8 -3 12 -2 9 4 -6 10 -25 14 -25 6z"/>
<path d="M3297 3043 c-4 -3 7 -25 23 -49 17 -23 30 -45 30 -48 0 -10 69 -114
80 -121 17 -10 11 5 -18 48 -16 23 -39 62 -53 87 -31 59 -55 91 -62 83z"/>
<path d="M2700 2987 c35 -20 74 -32 66 -19 -3 5 -16 12 -28 15 -13 2 -32 8
-43 11 -12 5 -10 2 5 -7z"/>
<path d="M2349 2977 c6 -8 7 -18 3 -22 -4 -5 -1 -5 6 -1 10 6 10 11 1 22 -6 8
-14 14 -16 14 -3 0 0 -6 6 -13z"/>
<path d="M3456 2978 c3 -5 10 -6 15 -3 13 9 11 12 -6 12 -8 0 -12 -4 -9 -9z"/>
<path d="M3310 2954 c0 -14 4 -23 9 -20 5 3 7 15 4 26 -7 28 -13 25 -13 -6z"/>
<path d="M2860 2920 c86 -31 220 -43 220 -20 0 6 10 10 22 10 12 0 18 3 15 7
-4 3 -38 0 -75 -7 -64 -12 -73 -11 -154 14 -116 35 -133 33 -28 -4z"/>
<path d="M2910 2936 c14 -8 36 -15 50 -15 23 1 22 2 -5 9 -16 4 -39 11 -50 14
-13 5 -12 2 5 -8z"/>
<path d="M3413 2935 c0 -8 4 -12 9 -9 5 3 6 10 3 15 -9 13 -12 11 -12 -6z"/>
<path d="M2580 2910 c0 -5 7 -10 16 -10 8 0 12 5 9 10 -3 6 -10 10 -16 10 -5
0 -9 -4 -9 -10z"/>
<path d="M3530 2917 c0 -2 6 -10 14 -16 11 -9 16 -9 22 1 4 7 4 10 -1 6 -4 -4
-14 -3 -22 3 -7 6 -13 9 -13 6z"/>
<path d="M3185 2901 c-3 -5 0 -13 6 -17 7 -4 9 -3 5 4 -3 5 0 13 6 15 9 4 10
6 1 6 -6 1 -14 -3 -18 -8z"/>
<path d="M3340 2901 c0 -6 4 -13 10 -16 6 -3 7 1 4 9 -7 18 -14 21 -14 7z"/>
<path d="M2700 2873 c8 -3 19 -11 23 -17 6 -7 7 -6 4 4 -2 8 -12 16 -23 17
-13 2 -15 1 -4 -4z"/>
<path d="M3220 2864 c0 -29 153 -235 246 -331 75 -78 75 -67 -1 22 -28 33 -74
89 -101 125 -27 36 -51 67 -54 70 -3 3 -23 31 -43 63 -36 53 -47 66 -47 51z"/>
<path d="M3017 2834 c-16 -9 -39 -13 -51 -10 -13 3 -31 -1 -42 -9 -17 -13 -14
-14 31 -8 61 7 95 19 95 33 0 12 1 13 -33 -6z"/>
<path d="M3113 2825 c0 -8 4 -15 9 -15 4 0 8 4 8 9 0 6 -4 12 -8 15 -5 3 -9
-1 -9 -9z"/>
<path d="M2441 2810 c0 -8 9 -35 20 -60 13 -31 18 -36 14 -16 -8 37 -33 95
-34 76z"/>
<path d="M2875 2810 c-3 -5 -1 -10 4 -10 6 0 11 5 11 10 0 6 -2 10 -4 10 -3 0
-8 -4 -11 -10z"/>
<path d="M2301 2766 c-1 -34 2 -47 9 -40 7 7 7 24 1 50 l-9 39 -1 -49z"/>
<path d="M3146 2796 c3 -9 11 -16 16 -16 13 0 5 23 -10 28 -7 2 -10 -2 -6 -12z"/>
<path d="M3090 2770 c0 -5 5 -10 11 -10 5 0 7 5 4 10 -3 6 -8 10 -11 10 -2 0
-4 -4 -4 -10z"/>
<path d="M3177 2774 c-2 -3 14 -24 37 -47 22 -23 72 -86 110 -140 38 -54 71
-95 74 -93 8 9 -131 205 -174 246 -23 21 -44 37 -47 34z"/>
<path d="M2963 2708 c-23 -30 -24 -41 -2 -21 12 12 20 25 17 28 -3 3 -10 0
-15 -7z"/>
<path d="M2290 2679 c0 -9 7 -22 15 -29 19 -16 19 0 0 26 -12 16 -14 16 -15 3z"/>
<path d="M3140 2676 c0 -3 27 -30 60 -62 33 -31 88 -93 123 -137 34 -44 72
-92 85 -106 l23 -26 -12 25 c-46 94 -279 350 -279 306z"/>
<path d="M2225 2599 c4 -23 13 -56 21 -74 14 -33 44 -66 44 -47 0 6 -5 14 -11
17 -6 4 -8 14 -5 22 3 8 2 11 -4 8 -5 -3 -15 22 -22 55 -13 67 -34 84 -23 19z"/>
<path d="M2294 2627 c3 -10 6 -28 6 -40 0 -15 3 -18 11 -10 8 8 6 19 -6 39 -9
16 -14 21 -11 11z"/>
<path d="M2337 2567 c-5 -15 42 -121 50 -113 3 3 -1 16 -9 28 -8 13 -18 31
-21 41 -6 15 -3 17 15 11 20 -6 21 -5 10 9 -8 9 -20 13 -28 10 -10 -4 -12 0
-8 11 3 9 4 16 1 16 -3 0 -7 -6 -10 -13z"/>
<path d="M2785 2549 c-4 -6 -5 -12 -2 -15 2 -3 7 2 10 11 7 17 1 20 -8 4z"/>
<path d="M3234 2552 c4 -7 3 -12 -1 -12 -16 0 -34 -38 -21 -46 7 -5 8 -3 3 6
-6 10 -4 12 11 6 10 -4 15 -4 12 0 -4 4 -3 15 2 25 7 12 6 20 -2 25 -7 4 -8 3
-4 -4z"/>
<path d="M3050 2533 c0 -10 4 -14 8 -8 4 6 11 13 16 18 5 4 2 7 -7 7 -10 0
-17 -8 -17 -17z"/>
<path d="M2300 2534 c0 -13 42 -74 50 -74 5 0 -1 18 -13 40 -20 35 -37 51 -37
34z"/>
<path d="M2748 2502 c-10 -20 -16 -38 -14 -40 8 -7 38 47 34 61 -2 8 -11 -2
-20 -21z"/>
<path d="M2714 2497 c-28 -32 -40 -52 -26 -43 12 7 56 66 49 66 -2 0 -12 -10
-23 -23z"/>
<path d="M3033 2504 c3 -4 -7 -26 -24 -50 -38 -56 -31 -57 10 -2 33 45 38 58
19 58 -6 0 -9 -3 -5 -6z"/>
<path d="M3255 2500 c-3 -5 -2 -10 4 -10 5 0 13 5 16 10 3 6 2 10 -4 10 -5 0
-13 -4 -16 -10z"/>
<path d="M2615 2480 c-3 -6 1 -7 9 -4 18 7 21 14 7 14 -6 0 -13 -4 -16 -10z"/>
<path d="M3297 2463 c-4 -3 -7 -11 -7 -17 0 -6 5 -5 12 2 6 6 9 14 7 17 -3 3
-9 2 -12 -2z"/>
<path d="M2999 2403 l-24 -28 28 24 c25 23 32 31 24 31 -2 0 -14 -12 -28 -27z"/>
<path d="M3110 2415 c-7 -9 -8 -15 -2 -15 5 0 12 7 16 15 3 8 4 15 2 15 -2 0
-9 -7 -16 -15z"/>
<path d="M3331 2414 c0 -11 3 -14 6 -6 3 7 2 16 -1 19 -3 4 -6 -2 -5 -13z"/>
<path d="M2956 2371 c-4 -5 -2 -12 3 -15 5 -4 12 -2 15 3 4 5 2 12 -3 15 -5 4
-12 2 -15 -3z"/>
<path d="M3060 2370 c0 -5 5 -10 10 -10 6 0 10 5 10 10 0 6 -4 10 -10 10 -5 0
-10 -4 -10 -10z"/>
<path d="M3040 2241 c0 -6 4 -13 10 -16 6 -3 7 1 4 9 -7 18 -14 21 -14 7z"/>
<path d="M2995 2183 c34 -53 45 -67 45 -60 0 10 -51 87 -57 87 -3 0 3 -12 12
-27z"/>
<path d="M3060 2199 c0 -5 5 -7 10 -4 6 3 10 8 10 11 0 2 -4 4 -10 4 -5 0 -10
-5 -10 -11z"/>
<path d="M3076 2167 c3 -10 9 -15 12 -12 3 3 0 11 -7 18 -10 9 -11 8 -5 -6z"/>
<path d="M3095 2141 c-3 -5 -2 -12 3 -15 5 -3 9 1 9 9 0 17 -3 19 -12 6z"/>
<path d="M3040 2106 c0 -2 8 -10 18 -17 15 -13 16 -12 3 4 -13 16 -21 21 -21
13z"/>
<path d="M3132 2001 c13 -17 27 -30 31 -30 10 -1 -12 42 -27 51 -24 17 -26 6
-4 -21z"/>
<path d="M3046 1848 c3 -5 10 -6 15 -3 13 9 11 12 -6 12 -8 0 -12 -4 -9 -9z"/>
</g>
</svg>
